<svg width="90" height="97" viewBox="0 0 90 97" fill="none" xmlns="http://www.w3.org/2000/svg">
<g clip-path="url(#clip0_852_4618)">
<path d="M77.885 92.1761C77.885 93.9922 66.0061 95.4644 51.3528 95.4644C36.6997 95.4644 24.8208 93.9922 24.8208 92.1761C24.8208 90.3603 36.6997 88.8881 51.3528 88.8881C66.0061 88.8881 77.885 90.3603 77.885 92.1761Z" fill="#60827F"/>
<path d="M73.0619 24.7275C71.6521 21.1883 70.2344 17.6334 68.3308 14.3625C66.4272 11.0915 64.0021 8.09013 60.9245 6.04824C59.3754 5.02036 57.7098 4.26279 55.9762 3.68624C53.33 2.80583 50.5457 2.40951 47.7555 2.40951H43.9485C41.1584 2.40951 38.374 2.80584 35.7279 3.68599C33.9943 4.2628 32.3286 5.02036 30.7796 6.04824C27.702 8.09013 25.2769 11.0915 23.3733 14.3625C21.4697 17.6334 20.052 21.1883 18.6421 24.7275C17.8946 26.6041 17.1713 28.8605 18.2276 30.5635C22.328 27.5354 27.6399 27.2449 32.6392 27.0594C36.811 26.9048 41.0376 26.7587 45.1296 27.5574C45.1241 27.6658 45.1196 27.7742 45.1141 27.8827C45.3594 27.8198 45.6055 27.7627 45.8522 27.7075C46.0985 27.7627 46.3447 27.8198 46.59 27.8827C46.5844 27.7742 46.58 27.6658 46.5744 27.5574C50.6665 26.7587 54.893 26.9048 59.0651 27.0594C64.0642 27.2449 69.376 27.5354 73.4765 30.5635C74.5328 28.8605 73.8095 26.6041 73.0619 24.7275Z" fill="#D34B20"/>
<path d="M54.0762 26.6592C55.7884 26.6592 57.5346 26.7239 59.0753 26.781C63.5574 26.9471 69.1135 27.1532 73.3845 30.1536C74.1279 28.644 73.5501 26.7082 72.8018 24.8297C71.4175 21.3555 69.9863 17.7626 68.0885 14.5022C65.9712 10.8637 63.5084 8.097 60.7691 6.2796C59.3335 5.32716 57.7368 4.56488 55.8874 3.95009C53.3694 3.11264 50.6335 2.68776 47.7554 2.68776H43.9484C41.0704 2.68776 38.3345 3.11264 35.8162 3.95009C33.9671 4.56488 32.3704 5.32716 30.9345 6.2796C28.1952 8.09726 25.7325 10.8637 23.6154 14.5022C21.7175 17.7626 20.2864 21.3555 18.9021 24.8297C18.1538 26.7082 17.576 28.644 18.3193 30.1536C22.5904 27.1532 28.1465 26.9471 32.6286 26.781C34.1692 26.7239 35.9154 26.6592 37.6277 26.6592C40.5995 26.6592 43.0003 26.8575 45.1835 27.2837C45.304 27.3072 45.3933 27.4055 45.4072 27.5234C45.5349 27.4932 45.6625 27.4642 45.7902 27.4356C45.8307 27.4262 45.8729 27.4262 45.9134 27.4356C46.0413 27.4642 46.169 27.4932 46.2966 27.5234C46.3109 27.4055 46.3998 27.3072 46.5204 27.2837C48.7035 26.8575 51.1044 26.6592 54.0762 26.6592ZM73.4764 30.8417C73.4166 30.8417 73.3582 30.8226 73.3095 30.7867C69.1456 27.7117 63.5503 27.5042 59.0545 27.3376C57.5188 27.2805 55.7779 27.2161 54.0762 27.2161C51.2492 27.2161 48.9494 27.3971 46.8652 27.785L46.8668 27.8154C46.8721 27.8369 46.8749 27.8594 46.8749 27.8825C46.8749 28.0368 46.7494 28.1567 46.5925 28.1607C46.5704 28.1675 46.5443 28.1581 46.5204 28.152C46.298 28.0952 46.0753 28.0431 45.8518 27.9925C45.6289 28.0431 45.4059 28.0952 45.1835 28.152C45.0974 28.174 45.0061 28.1539 44.9368 28.0981C44.8681 28.042 44.8302 27.9569 44.8347 27.8683L44.8387 27.785C42.7545 27.3971 40.4547 27.2161 37.6277 27.2161C35.9257 27.2161 34.1853 27.2805 32.6494 27.3376C28.1536 27.5042 22.5583 27.7117 18.3941 30.7867C18.3314 30.8331 18.2517 30.8517 18.1748 30.8367C18.0977 30.8221 18.0306 30.7757 17.9895 30.7097C16.9022 28.9567 17.5355 26.749 18.382 24.6246C19.7736 21.1313 21.2127 17.519 23.131 14.2227C25.2918 10.5101 27.8127 7.68155 30.6242 5.81622C32.1019 4.836 33.7423 4.05277 35.6391 3.42174C38.2144 2.56517 41.0101 2.13086 43.9484 2.13086H47.7554C50.6938 2.13086 53.4894 2.56543 56.0648 3.42174C57.9618 4.05277 59.6022 4.836 61.0797 5.81622C63.8909 7.68155 66.412 10.5098 68.5728 14.2227C70.4912 17.519 71.9305 21.1313 73.3221 24.6246C74.1684 26.7493 74.8017 28.957 73.7143 30.7097C73.6733 30.7757 73.6059 30.8221 73.529 30.8367C73.5114 30.8402 73.494 30.8417 73.4764 30.8417Z" fill="#292625"/>
<path d="M61.5057 18.4409C53.2521 15.8138 44.5569 14.8425 35.9856 15.5899C30.3795 16.0787 24.4257 17.5317 20.6145 22.0359C19.0373 23.8997 17.897 26.6577 18.9064 28.9414C19.6461 30.6147 21.3736 31.552 23.069 31.75C24.7642 31.9483 26.4627 31.5331 28.1329 31.1601C38.6038 28.8227 49.3101 28.0667 59.9764 27.3163C62.9192 27.1093 65.9392 26.9113 68.758 27.8556C69.7877 28.2003 71.0664 28.6331 71.8119 27.7859C72.5879 26.904 72.0469 25.4323 71.3428 24.4817C68.9412 21.2393 65.1771 19.6095 61.5057 18.4409Z" fill="#D83E30"/>
<path d="M73.8363 38.6277C74.8968 38.9277 75.8802 37.9941 75.6533 36.9206C75.154 34.5591 75.4601 31.8917 74.7341 29.5379C73.8458 26.6577 71.466 24.4639 68.8948 22.8765C61.9966 18.6177 53.5479 17.8877 45.4333 17.5008C45.4328 17.4966 45.4326 17.4922 45.432 17.488C45.3881 17.4901 45.3438 17.4922 45.2999 17.4943C45.2557 17.4922 45.2114 17.4901 45.1675 17.488C45.1672 17.4922 45.1667 17.4966 45.1664 17.5008C37.0516 17.8877 28.6029 18.6177 21.705 22.8765C19.1335 24.4639 16.7538 26.6577 15.8656 29.5379C15.1397 31.8917 15.4455 34.5591 14.9465 36.9206C14.7196 37.9941 15.703 38.9277 16.7632 38.6277C25.4635 36.1686 34.5223 34.9722 43.5658 35.0799C43.5626 35.1137 43.5595 35.1472 43.5566 35.1808C44.1372 35.1522 44.7184 35.1326 45.2999 35.1147C45.8811 35.1326 46.4623 35.1522 47.0432 35.1808C47.04 35.1472 47.0371 35.1137 47.034 35.0799C56.0775 34.9722 65.1363 36.1686 73.8363 38.6277Z" fill="#F68A14"/>
<path d="M48.1549 34.7945C56.8778 34.7945 65.5439 35.994 73.9125 38.3599C74.3679 38.489 74.8464 38.334 75.1409 37.9725C75.3673 37.6953 75.4539 37.3325 75.3792 36.9776C75.1554 35.9198 75.0899 34.7914 75.0262 33.7001C74.9461 32.3267 74.8632 30.9072 74.466 29.6192C73.714 27.181 71.7896 24.9916 68.7468 23.1132C61.9083 18.8911 53.4733 18.1629 45.4195 17.7786C45.3998 17.7778 45.3806 17.7749 45.3619 17.7699L45.3124 17.7723L45.2355 17.7697C45.2174 17.7749 45.1984 17.7778 45.1792 17.7786C37.1257 18.1629 28.6905 18.8911 21.8522 23.1132C18.8091 24.9916 16.885 27.181 16.1327 29.6192C15.7355 30.9069 15.6528 32.3267 15.5728 33.6996C15.5091 34.7911 15.4433 35.9198 15.2198 36.9776C15.1448 37.3325 15.2317 37.6951 15.4578 37.9725C15.7526 38.334 16.2311 38.489 16.6865 38.3599C25.4152 35.8923 34.4745 34.6884 43.5685 34.8016C43.6459 34.8024 43.7194 34.8351 43.7715 34.8917C44.2777 34.8686 44.7844 34.8516 45.2911 34.8362C45.8122 34.8516 46.3208 34.8686 46.8272 34.8917C46.8796 34.8351 46.9528 34.8024 47.0302 34.8016C47.405 34.7969 47.7801 34.7945 48.1549 34.7945ZM74.2397 38.9629C74.0794 38.9629 73.9177 38.9401 73.7595 38.8956C65.1546 36.4629 56.2306 35.2715 47.2602 35.3559C47.2552 35.3619 47.2502 35.3676 47.2447 35.3731C47.1886 35.4316 47.1115 35.4627 47.0291 35.4585C46.45 35.4305 45.8704 35.4106 45.2911 35.3928C44.7286 35.4106 44.1489 35.4305 43.5699 35.4585C43.4883 35.4617 43.4101 35.4316 43.354 35.3731C43.3487 35.3676 43.3435 35.3619 43.3387 35.3559C43.0405 35.353 42.7426 35.3514 42.4441 35.3514C33.7727 35.3514 25.1583 36.5438 16.8394 38.8956C16.1708 39.085 15.4575 38.8555 15.0235 38.3235C14.6905 37.9151 14.5623 37.3828 14.6723 36.8631C14.8871 35.846 14.9519 34.7382 15.0143 33.6673C15.0961 32.2615 15.1809 30.8079 15.5978 29.456C16.3909 26.885 18.3959 24.5916 21.5572 22.6398C28.4875 18.3612 36.9722 17.6146 45.0765 17.2261C45.1089 17.2141 45.1447 17.2075 45.18 17.2096L45.3124 17.2162L45.4187 17.2096C45.4572 17.2075 45.4943 17.2138 45.5282 17.2264C53.6307 17.6151 62.113 18.3622 69.0418 22.6398C72.2031 24.5916 74.2081 26.885 75.0012 29.456C75.4181 30.8082 75.5029 32.2617 75.5847 33.6676C75.6471 34.7385 75.7116 35.8462 75.9267 36.8631C76.0364 37.3828 75.9085 37.9151 75.5755 38.3235C75.2441 38.73 74.7572 38.9629 74.2397 38.9629Z" fill="#292625"/>
<path d="M62.8763 27.9609C53.8433 25.3339 44.3273 24.3626 34.9466 25.1099C28.8114 25.5987 22.2954 27.0517 18.1241 31.5559C16.3981 33.4197 15.1502 36.1777 16.255 38.4614C17.0644 40.1347 18.9551 41.072 20.8105 41.27C22.6657 41.4683 24.5246 41.0531 26.3527 40.6801C37.812 38.3427 49.5293 37.5868 61.2024 36.8363C64.4232 36.6293 67.7282 36.4313 70.8132 37.3756C71.9403 37.7203 73.3398 38.1531 74.1556 37.3059C75.0047 36.424 74.413 34.9523 73.6423 34.0017C71.0138 30.7593 66.8943 29.1295 62.8763 27.9609Z" fill="#D83E30"/>
<path d="M76.3405 48.2604C74.8551 44.1722 72.7172 40.2456 69.9995 36.6147C68.2225 34.2401 66.1438 31.9478 63.3531 30.3719C61.2442 29.1811 58.8049 28.4445 56.3333 27.9088C53.1399 27.2168 49.8456 26.8451 46.5443 26.7963C46.3859 26.7921 46.2274 26.7893 46.0697 26.788C46.0545 26.788 46.0395 26.7872 46.0245 26.7872C45.9671 26.7869 45.9097 26.7872 45.8523 26.7872C45.7947 26.7872 45.7373 26.7869 45.6799 26.7872C45.6649 26.7872 45.6499 26.788 45.6349 26.788C45.477 26.7893 45.3185 26.7921 45.16 26.7963C41.8587 26.8451 38.5645 27.2168 35.3711 27.9088C32.8994 28.4445 30.4602 29.1811 28.3512 30.3719C25.5605 31.9478 23.4819 34.2401 21.7049 36.6147C18.9871 40.2456 16.8492 44.1722 15.3639 48.2604C14.3384 51.0829 13.6856 54.3224 15.5652 56.8274C17.4136 59.2908 21.1195 60.2631 24.5495 60.8787C30.214 61.8959 35.9799 62.4528 41.7508 62.9363C42.9858 63.3387 44.4464 63.3494 45.8523 63.2645C47.2579 63.3494 48.7185 63.3387 49.9536 62.9363C55.7244 62.4528 61.4903 61.8959 67.1551 60.8787C70.5849 60.2631 74.2908 59.2908 76.1391 56.8274C78.0188 54.3224 77.366 51.0829 76.3405 48.2604Z" fill="#2E2227"/>
<path d="M45.8517 62.9864C45.8575 62.9864 45.863 62.9864 45.8688 62.9866C46.3373 63.0152 46.7506 63.0285 47.1331 63.0285C48.2346 63.0285 49.1288 62.912 49.8664 62.6718C49.8869 62.665 49.9082 62.6605 49.9298 62.6587C55.1345 62.2225 61.183 61.668 67.105 60.605C70.4482 60.0049 74.1093 59.0666 75.9145 56.6611C77.8352 54.1013 76.9271 50.695 76.0769 48.355C74.5995 44.2882 72.4789 40.3941 69.7749 36.7808C68.2887 34.7952 66.2 32.3002 63.2148 30.6143C61.3936 29.5861 59.1881 28.8126 56.2734 28.181C53.1124 27.4958 49.8374 27.1235 46.54 27.0748C46.3795 27.0704 46.2231 27.0675 46.067 27.0662C46.067 27.0662 46.0412 27.0659 46.0394 27.0659L45.6809 27.0654L45.6345 27.0664C45.4806 27.0675 45.3239 27.0704 45.1673 27.0748C41.8663 27.1235 38.5912 27.4958 35.4302 28.181C32.5156 28.8126 30.31 29.5861 28.4888 30.6143C25.5039 32.2999 23.4152 34.7952 21.9291 36.7808C19.2247 40.3941 17.1045 44.2882 15.6267 48.355C14.7765 50.695 13.8687 54.1013 15.7891 56.6611C17.5943 59.0666 21.2555 60.0049 24.5986 60.605C30.5203 61.668 36.5692 62.2225 41.7739 62.6587C41.7954 62.6605 41.8168 62.665 41.8373 62.6718C42.5751 62.912 43.469 63.0285 44.5709 63.0285C44.9528 63.0285 45.3666 63.0152 45.8348 62.9869C45.8404 62.9864 45.8462 62.9864 45.8517 62.9864ZM47.1331 63.5854C46.744 63.5854 46.3247 63.5721 45.8517 63.5435C45.3787 63.5721 44.9596 63.5854 44.5709 63.5854C43.4243 63.5854 42.483 63.4631 41.6946 63.2111C36.4844 62.7742 30.4324 62.2183 24.4994 61.1527C21.0488 60.5335 17.2624 59.5551 15.3409 56.994C13.2585 54.2192 14.2064 50.6266 15.1006 48.1656C16.5967 44.0478 18.7433 40.1054 21.4803 36.4484C22.9991 34.4191 25.1369 31.8669 28.2129 30.1299C30.0842 29.0732 32.3397 28.2808 35.3112 27.6367C38.5086 26.9438 41.8207 26.5674 45.1555 26.5182C45.3124 26.5137 45.4724 26.5108 45.6322 26.5095L45.9667 26.5085L46.0254 26.5087C46.0273 26.5087 46.0517 26.509 46.0538 26.509C46.2313 26.5108 46.3913 26.5137 46.5519 26.5182C49.8829 26.5674 53.1951 26.9438 56.3924 27.6367C59.3639 28.2808 61.6195 29.0732 63.491 30.1299C66.567 31.8669 68.7049 34.4191 70.2237 36.4484C72.9606 40.1054 75.1069 44.0478 76.6034 48.1656C77.4973 50.6266 78.4451 54.2192 76.3628 56.994C74.4415 59.5551 70.6548 60.5335 67.2042 61.1527C61.271 62.2183 55.219 62.7742 50.009 63.2111C49.2207 63.4631 48.2797 63.5854 47.1331 63.5854Z" fill="#292625"/>
<path d="M73.8005 57.2954C73.8218 51.2853 72.2267 45.277 69.2249 40.0616C69.7677 40.4304 70.3104 40.799 70.8532 41.1675C70.3615 39.4766 69.4247 37.9157 68.1612 36.6835C68.9325 37.1938 69.7035 37.7038 70.4744 38.2141C66.8428 32.923 60.6355 29.4728 54.2039 29.1711C51.4727 29.0427 48.6723 29.4747 46.2259 30.6671C43.7795 29.4747 40.9791 29.0427 38.2479 29.1711C31.8161 29.4728 25.6091 32.923 21.9774 38.2141C22.7484 37.7038 23.5194 37.1938 24.2903 36.6835C23.0271 37.9157 22.0901 39.4766 21.5986 41.1675C22.1414 40.799 22.6842 40.4304 23.2269 40.0616C20.2251 45.277 18.63 51.2853 18.6511 57.2954C19.341 56.0124 20.0309 54.7294 20.7208 53.4464C19.282 62.7916 21.8811 72.6841 27.7314 80.1331C29.7185 82.6633 32.1612 84.9813 35.2054 86.0461C37.0984 86.7081 39.1192 86.8511 41.1342 86.8985C41.1313 86.9438 41.1284 86.9889 41.1255 87.0342C42.8256 87.0124 44.5258 86.9907 46.2259 86.969C47.9261 86.9907 49.6262 87.0124 51.3264 87.0342C51.3235 86.9889 51.3206 86.9438 51.3174 86.8985C53.3324 86.8511 55.3534 86.7081 57.2465 86.0461C60.2906 84.9813 62.7331 82.6633 64.7204 80.1331C70.5708 72.6841 73.1696 62.7916 71.731 53.4464C72.421 54.7294 73.1109 56.0124 73.8005 57.2954Z" fill="#F2591D"/>
<path d="M46.2223 86.6905L51.0795 86.7523C51.0884 86.7374 51.0992 86.7235 51.1111 86.7104C51.1627 86.6544 51.2348 86.6219 51.3111 86.6201C53.2316 86.5747 55.2687 86.4422 57.1536 85.7831C59.7271 84.8831 62.1301 82.979 64.5001 79.9616C70.2747 72.6092 72.8745 62.7126 71.4544 53.4883C71.4339 53.3542 71.5134 53.2248 71.6426 53.1818C71.7719 53.1396 71.9135 53.1949 71.978 53.3146L73.5057 56.1565C73.3373 50.56 71.7829 45.0659 68.982 40.1999C68.9172 40.0873 68.9391 39.945 69.0349 39.857C69.1307 39.769 69.275 39.7585 69.3826 39.8316L70.3247 40.4713C69.8093 39.1233 69.0033 37.8945 67.9654 36.8821C67.8625 36.7815 67.853 36.6196 67.9441 36.508C68.0347 36.3964 68.1963 36.3718 68.3163 36.4514L69.2863 37.0935C65.632 32.6105 59.9859 29.7209 54.1908 29.4488C51.328 29.3154 48.5842 29.8273 46.3491 30.9172C46.2715 30.955 46.1804 30.955 46.1028 30.9172C43.8675 29.8273 41.1239 29.3162 38.2611 29.4488C32.466 29.7209 26.8199 32.6105 23.1656 37.0932L24.1356 36.4514C24.2554 36.3718 24.4167 36.3964 24.5078 36.508C24.5986 36.6196 24.5894 36.7815 24.4862 36.8821C23.4483 37.8945 22.6426 39.1236 22.1272 40.4713L23.0693 39.8316C23.1767 39.7585 23.3212 39.7687 23.417 39.857C23.5128 39.945 23.5347 40.0873 23.4699 40.1999C20.669 45.0661 19.1146 50.5602 18.9462 56.1565L20.4739 53.3146C20.5384 53.1952 20.6803 53.1394 20.8093 53.1818C20.9385 53.2248 21.018 53.3542 20.9975 53.4883C19.5774 62.7126 22.1772 72.6092 27.9518 79.9616C30.3218 82.979 32.7248 84.8831 35.2983 85.7831C37.1832 86.4422 39.2203 86.5747 41.1408 86.6201C41.2171 86.6219 41.2892 86.6544 41.3408 86.7104C41.3527 86.7235 41.3635 86.7374 41.3727 86.7523L46.2223 86.6905ZM51.3317 87.3127C51.3298 87.3127 51.3282 87.3127 51.3264 87.3127C51.3253 87.3127 51.324 87.3124 51.323 87.3124L46.2223 87.2472L41.1292 87.3124C41.0531 87.3244 40.9763 87.282 40.9226 87.2257C40.9065 87.2089 40.8928 87.1903 40.8818 87.1707C38.9874 87.118 36.9898 86.9648 35.1127 86.3086C32.4355 85.3721 29.9488 83.4081 27.5112 80.3045C21.958 73.2342 19.2942 63.8478 20.247 54.9172L18.898 57.4267C18.8375 57.5388 18.7088 57.5964 18.5837 57.5655C18.4592 57.5349 18.3718 57.4238 18.3713 57.2965C18.3513 51.6017 19.7469 45.9751 22.4168 40.9488L21.7563 41.3973C21.6589 41.4633 21.5302 41.4612 21.4344 41.3931C21.3389 41.3239 21.297 41.2029 21.3299 41.09C21.6516 39.9833 22.1543 38.9373 22.8121 37.9959L22.1322 38.4456C22.0206 38.5198 21.8724 38.5038 21.7782 38.4095C21.6842 38.3147 21.6708 38.1667 21.7463 38.0566C25.4167 32.7092 31.7348 29.1978 38.2345 28.8926C41.1395 28.7564 43.9299 29.2678 46.226 30.3577C48.522 29.2678 51.3119 28.7564 54.2171 28.8926C60.7018 29.197 67.0052 32.6927 70.6792 38.0187C70.729 38.0687 70.7595 38.1379 70.7595 38.2138C70.7595 38.3676 70.6342 38.4923 70.4797 38.4923C70.4779 38.492 70.476 38.4923 70.4742 38.4923C70.4208 38.4923 70.3668 38.4771 70.3194 38.4456L69.64 37.9961C70.2876 38.9232 70.7853 39.9519 71.1075 41.04C71.1273 41.0782 71.1383 41.1214 71.1383 41.1673C71.1383 41.3211 71.013 41.446 70.8585 41.446C70.8569 41.446 70.8551 41.446 70.8532 41.446C70.7982 41.446 70.7432 41.4298 70.6956 41.3973L70.0351 40.9488C72.7047 45.9751 74.1006 51.6015 74.0806 57.2965C74.0801 57.4238 73.9927 57.5349 73.8682 57.5655C73.7437 57.5964 73.6144 57.5388 73.5539 57.427L72.2049 54.9172C73.1577 63.8478 70.4939 73.2342 64.9408 80.3045C62.5031 83.4081 60.0164 85.3721 57.3392 86.3086C55.4637 86.9643 53.4682 87.1178 51.5757 87.1704C51.5278 87.2553 51.4364 87.3127 51.3317 87.3127Z" fill="#292625"/>
<path d="M68.6412 63.5363C68.3298 62.7012 67.5815 62.1317 66.7247 62.088C66.7249 62.1016 67.4206 61.875 67.5009 61.8323C67.7955 61.6751 68.051 61.4454 68.2487 61.168C68.6064 60.6661 68.7431 60.028 68.6686 59.4103C68.5254 58.2195 67.5214 57.2917 66.3664 57.3527C66.3656 57.347 66.3651 57.3409 66.3641 57.3352C67.5815 57.0743 68.2793 55.7871 67.981 54.5446C67.8465 53.9846 67.5507 53.4916 67.0969 53.1558C66.8379 52.964 66.5375 52.8401 66.2238 52.7909C66.1256 52.7754 65.297 52.8121 65.3067 52.8396C66.4291 52.2963 66.8429 50.8711 66.273 49.734C65.7055 48.6021 64.4099 48.0871 63.308 48.7294C63.3146 48.7396 63.7853 48.1633 63.8313 48.0821C63.9832 47.8131 64.073 47.5142 64.1043 47.2038C64.1677 46.5783 63.9579 45.9365 63.5681 45.4618C62.7734 44.4939 61.4039 44.2964 60.4674 45.1719C60.4703 45.175 60.7935 44.5581 60.8219 44.473C60.9256 44.1628 60.9562 43.8346 60.9209 43.5085C60.8535 42.8877 60.5229 42.3227 60.0544 41.9426C59.0891 41.1507 57.6825 41.2856 56.9499 42.3454C56.9584 42.3507 57.1481 41.6238 57.1566 41.5292C57.1866 41.1923 57.1373 40.8534 57.0202 40.5385C56.8144 39.9848 56.3922 39.5408 55.8826 39.2875C54.777 38.7308 53.432 39.1795 52.9337 40.3769C52.9363 40.3779 52.9816 39.6791 52.9732 39.589C52.9426 39.2641 52.8397 38.9556 52.6789 38.6769C52.387 38.1716 51.8995 37.8135 51.3591 37.6581C50.1401 37.3079 48.8545 38.038 48.6084 39.3666C48.6169 39.3676 48.4963 38.6258 48.4658 38.5357C48.3663 38.2433 48.2065 37.9806 47.9986 37.7598C47.5782 37.3134 46.9794 37.057 46.3792 37.0708C45.7699 37.0847 45.1939 37.3069 44.763 37.7674C44.5559 37.9887 44.3977 38.2554 44.2998 38.548C44.2695 38.6381 44.1526 39.3797 44.161 39.3786C43.9155 38.0893 42.7154 37.3909 41.5225 37.6513C40.9692 37.7721 40.4636 38.1268 40.1467 38.6156C39.9713 38.8856 39.8542 39.19 39.8097 39.5138C39.7963 39.6131 39.8268 40.4172 39.8408 40.4123C39.3351 39.2141 38.018 38.7989 36.908 39.3254C36.3649 39.5829 35.9319 40.0738 35.7327 40.6611C35.6379 40.9404 35.5977 41.2348 35.6187 41.5305C35.6258 41.6303 35.8206 42.4101 35.834 42.4018C35.0944 41.343 33.7211 41.2345 32.7459 41.9976C32.2682 42.3714 31.9455 42.9482 31.8712 43.5672C31.836 43.8616 31.8573 44.1586 31.9389 44.4431C31.9662 44.539 32.3187 45.258 32.3303 45.2463C31.3887 44.3753 30.0237 44.5825 29.229 45.5509C28.4314 46.5233 28.5465 48.0145 29.517 48.803C29.5199 48.798 28.8816 48.5761 28.7971 48.5623C28.482 48.5101 28.1551 48.534 27.8518 48.6385C27.2706 48.8389 26.8268 49.2766 26.5455 49.8385C25.9756 50.9764 26.4102 52.4045 27.5299 52.9399C27.5394 52.9127 26.7092 52.8797 26.611 52.8957C26.2972 52.9462 25.9974 53.0717 25.7395 53.2653C25.2878 53.6045 24.9967 54.0993 24.8622 54.6591C24.7071 55.3048 24.8135 56.0097 25.1822 56.5564C25.3425 56.7963 25.5497 57.0007 25.7882 57.1542C25.8613 57.2011 26.4907 57.4688 26.4918 57.4612C25.4065 57.4059 24.4371 58.2279 24.2236 59.3365C23.9643 60.6837 24.8116 62.0395 26.1464 62.1781C26.1467 62.1637 25.4431 62.3546 25.3615 62.3929C25.0893 62.5207 24.8424 62.7085 24.6426 62.9404C24.2428 63.4045 24.057 64.0322 24.0878 64.6506C24.1175 65.2484 24.3373 65.8103 24.7437 66.237C24.954 66.4581 25.2133 66.6257 25.4934 66.7321C25.5839 66.7664 26.4083 66.9078 26.4036 66.874C25.1535 67.1512 24.506 68.4392 24.7956 69.7031C24.9285 70.2836 25.2996 70.8111 25.7845 71.1194C26.0611 71.2952 26.368 71.4026 26.6918 71.4228C26.7816 71.4283 27.5926 71.3279 27.5776 71.2918C26.3838 71.904 26.1196 73.3882 26.8016 74.5245C27.1035 75.0269 27.6118 75.4156 28.1693 75.5348C28.4728 75.5995 28.7865 75.5967 29.0863 75.5126C29.1756 75.4874 29.9592 75.0919 29.9223 75.0505C29.0121 76.027 29.2114 77.5597 30.2387 78.3508C31.2542 79.1327 32.6704 78.9386 33.3432 77.7779C33.3271 77.7687 33.1665 78.4839 33.1605 78.569C33.1368 78.9058 33.1881 79.2508 33.32 79.5597C33.5648 80.1331 34.0244 80.5784 34.5861 80.7929C35.7387 81.2597 37.0472 80.696 37.4534 79.4497C37.446 79.4476 37.4489 80.1564 37.4631 80.2441C37.5155 80.5695 37.6392 80.8762 37.8163 81.1481C38.1322 81.6327 38.6358 81.9439 39.1748 82.0762C40.3904 82.3743 41.6349 81.5777 41.8702 80.2808C41.8702 80.2808 41.9729 80.9687 42.0005 81.0551C42.099 81.3653 42.2627 81.6485 42.4733 81.8892C42.8689 82.3413 43.4356 82.5852 44.0144 82.6216C45.2071 82.7059 46.2987 81.7865 46.3863 80.5195C46.3905 80.5195 46.5477 81.1471 46.5816 81.2265C46.7003 81.5062 46.8754 81.7582 47.092 81.9641C47.5555 82.405 48.1768 82.6171 48.7985 82.5666C49.3518 82.5213 49.8932 82.2936 50.2828 81.8716C50.496 81.6406 50.6639 81.3624 50.7695 81.0606C50.8027 80.9658 50.9327 80.1794 50.9206 80.181C51.1672 81.409 52.347 82.2109 53.5228 81.9573C54.0669 81.8402 54.5849 81.5473 54.9229 81.0771C55.1116 80.8149 55.2458 80.5082 55.3108 80.187C55.3303 80.0901 55.3524 79.2804 55.3348 79.2854C55.7541 80.5216 57.0597 81.0758 58.2073 80.6064C58.7422 80.4081 59.1865 79.9796 59.4345 79.4465C59.574 79.1466 59.6435 78.8205 59.6364 78.4867C59.6345 78.3924 59.4787 77.5867 59.4545 77.6003C60.1194 78.7474 61.536 78.9643 62.5502 78.1876C63.5768 77.4015 63.8026 75.8908 62.9058 74.8965C62.8869 74.9174 63.5131 75.2899 63.5876 75.3192C63.8919 75.4379 64.2196 75.4652 64.5402 75.4209C65.1511 75.3365 65.6881 74.936 66.0319 74.4103C66.7449 73.2912 66.4646 71.7861 65.2898 71.1689C65.2809 71.1899 65.9763 71.3107 66.0566 71.3109C66.3859 71.3135 66.7073 71.226 66.9963 71.0621C67.5291 70.7593 67.9321 70.2144 68.0797 69.5965C68.3814 68.3333 67.7236 67.0398 66.477 66.7635C66.4699 66.8122 67.384 66.6254 67.4812 66.583C67.8444 66.424 68.1516 66.1597 68.3785 65.8234C68.8202 65.169 68.9176 64.2821 68.6412 63.5363C68.7517 63.8346 68.5298 63.2377 68.6412 63.5363Z" fill="#F7A80E"/>
<path d="M65.0393 59.2425C64.7784 58.5429 64.1514 58.0659 63.4336 58.0292C63.4339 58.0407 64.0169 57.8508 64.084 57.8152C64.3309 57.6834 64.5447 57.4909 64.7105 57.2585C65.0101 56.8381 65.1246 56.3035 65.0622 55.7861C64.9421 54.7883 64.1012 54.0109 63.1335 54.0622C63.133 54.0572 63.1325 54.0525 63.1317 54.0476C64.1514 53.8288 64.736 52.7507 64.4862 51.7097C64.3736 51.2405 64.1256 50.8274 63.7455 50.5464C63.5286 50.3855 63.277 50.2818 63.014 50.2404C62.9317 50.2276 62.2375 50.2582 62.2457 50.2813C63.1859 49.826 63.5326 48.632 63.0551 47.6796C62.5797 46.7311 61.4945 46.2999 60.5713 46.8377C60.5769 46.8466 60.9712 46.3636 61.0096 46.2955C61.137 46.0702 61.2123 45.8198 61.2386 45.5599C61.2915 45.0357 61.116 44.498 60.7893 44.1003C60.1236 43.2896 58.9762 43.124 58.1916 43.8575C58.1942 43.8601 58.4648 43.3433 58.4887 43.272C58.5753 43.0122 58.6011 42.7371 58.5714 42.4639C58.5151 41.9437 58.2381 41.4706 57.8457 41.1524C57.0368 40.4888 55.8586 40.6017 55.2448 41.4897C55.2519 41.4942 55.4109 40.8852 55.418 40.8058C55.443 40.5237 55.4017 40.2395 55.3038 39.9759C55.1311 39.512 54.7776 39.1401 54.3506 38.9279C53.4244 38.4616 52.2975 38.8373 51.8803 39.8405C51.8824 39.8413 51.9203 39.2559 51.9132 39.1804C51.8877 38.9082 51.8016 38.65 51.6668 38.4163C51.4223 37.993 51.0138 37.6931 50.561 37.5629C49.54 37.2695 48.4629 37.8809 48.2568 38.9942C48.2639 38.9949 48.1628 38.3733 48.1373 38.2982C48.0538 38.0532 47.9199 37.8329 47.7459 37.648C47.3937 37.2742 46.892 37.0592 46.389 37.0707C45.8786 37.0825 45.3961 37.2684 45.0352 37.6543C44.8615 37.8398 44.7291 38.0632 44.647 38.3084C44.6217 38.3838 44.5238 39.0052 44.5306 39.0044C44.325 37.9241 43.3198 37.3389 42.3203 37.5571C41.8568 37.6585 41.4333 37.9555 41.1677 38.365C41.0208 38.591 40.9226 38.8462 40.8855 39.1173C40.8742 39.2006 40.8997 39.8743 40.9116 39.8701C40.4881 38.8663 39.3844 38.5187 38.4547 38.9596C37.9996 39.1752 37.6368 39.5867 37.47 40.0786C37.3905 40.3126 37.3568 40.559 37.3744 40.8068C37.3802 40.8904 37.5434 41.544 37.5547 41.5369C36.9354 40.6499 35.7846 40.559 34.9675 41.1982C34.5674 41.5115 34.2971 41.9945 34.235 42.5132C34.2052 42.7599 34.2231 43.0088 34.2916 43.2472C34.3145 43.3273 34.6098 43.9298 34.6195 43.9198C33.8307 43.1901 32.6872 43.3637 32.0215 44.175C31.3532 44.9896 31.4496 46.2391 32.2626 46.8995C32.2653 46.8953 31.7301 46.7096 31.6593 46.6978C31.3956 46.6543 31.1218 46.6742 30.8678 46.7617C30.3806 46.9296 30.0089 47.2964 29.7731 47.7671C29.2956 48.7203 29.6599 49.9166 30.5978 50.3654C30.6059 50.3423 29.9105 50.3151 29.8281 50.3282C29.5652 50.3706 29.314 50.4756 29.0979 50.638C28.7197 50.922 28.4757 51.3367 28.363 51.8055C28.233 52.3465 28.3222 52.9372 28.631 53.395C28.7655 53.5962 28.9389 53.7673 29.1387 53.8959C29.2001 53.9352 29.7276 54.1594 29.7281 54.1531C28.8192 54.1068 28.0069 54.7954 27.8282 55.724C27.6107 56.8528 28.3206 57.9886 29.4388 58.1046C29.4391 58.0926 28.8497 58.2526 28.7813 58.2846C28.5533 58.3917 28.3464 58.5491 28.1793 58.7433C27.8442 59.1322 27.6884 59.658 27.7142 60.1758C27.7392 60.677 27.9234 61.1474 28.2638 61.505C28.4401 61.6902 28.657 61.8308 28.8918 61.9199C28.9676 61.9487 29.6583 62.0671 29.6544 62.0388C28.607 62.2709 28.0648 63.3499 28.3072 64.4087C28.4186 64.8951 28.7294 65.337 29.1356 65.5953C29.3675 65.7428 29.6246 65.8326 29.8958 65.8494C29.971 65.8541 30.6504 65.77 30.6378 65.7399C29.6378 66.2525 29.4164 67.496 29.9879 68.4482C30.2408 68.8689 30.6665 69.1947 31.1337 69.2943C31.3877 69.3488 31.6507 69.3461 31.9018 69.2757C31.9765 69.2547 32.633 68.9234 32.6022 68.8888C31.8396 69.7066 32.0068 70.9907 32.8673 71.6534C33.718 72.3085 34.9043 72.1458 35.4682 71.1735C35.4547 71.1659 35.32 71.765 35.315 71.8362C35.2952 72.1183 35.3381 72.4075 35.4487 72.6663C35.6537 73.1465 36.0386 73.5195 36.5092 73.6995C37.475 74.0906 38.571 73.6183 38.9114 72.5741C38.9053 72.5723 38.9077 73.1661 38.9195 73.2397C38.9635 73.5122 39.0672 73.7691 39.2156 73.997C39.4802 74.4028 39.9019 74.6637 40.3536 74.7745C41.372 75.0241 42.4146 74.357 42.6115 73.2704C42.6107 73.2704 42.6978 73.8467 42.7207 73.919C42.8034 74.1791 42.9405 74.4161 43.1169 74.6179C43.4482 74.9966 43.9231 75.201 44.4082 75.2313C45.4071 75.3021 46.3216 74.5317 46.395 73.4703C46.3984 73.4703 46.5303 73.9962 46.5587 74.0625C46.6582 74.297 46.8049 74.5081 46.9862 74.6807C47.3745 75.0501 47.8951 75.2277 48.4158 75.1852C48.8793 75.1473 49.3331 74.9568 49.6592 74.6032C49.838 74.4096 49.9785 74.1765 50.0672 73.9237C50.0949 73.8443 50.2038 73.1855 50.1938 73.1868C50.4002 74.2155 51.3886 74.8871 52.3738 74.675C52.8295 74.5767 53.2635 74.3313 53.5467 73.9376C53.7047 73.7178 53.8173 73.4611 53.8716 73.1918C53.8881 73.1106 53.9066 72.4324 53.8918 72.4366C54.243 73.4721 55.3367 73.9365 56.2982 73.5433C56.7465 73.377 57.1184 73.0181 57.3263 72.5712C57.4432 72.32 57.5014 72.0471 57.4956 71.7673C57.4938 71.6882 57.3635 71.0134 57.3432 71.0247C57.8999 71.9855 59.087 72.1673 59.9365 71.5169C60.7964 70.8584 60.9859 69.5926 60.2347 68.7596C60.2186 68.7772 60.7432 69.0892 60.8056 69.1138C61.0604 69.2131 61.335 69.2361 61.6037 69.1989C62.1154 69.1282 62.5653 68.7926 62.8532 68.3523C63.4507 67.4148 63.2159 66.154 62.2318 65.6367C62.2241 65.6542 62.8069 65.7556 62.874 65.7556C63.1499 65.758 63.4191 65.6846 63.6613 65.5471C64.1075 65.2938 64.4454 64.8372 64.5689 64.3193C64.8216 63.2613 64.2707 62.1777 63.2262 61.9461C63.2204 61.987 63.9861 61.8306 64.0675 61.795C64.3717 61.6616 64.6292 61.4403 64.8192 61.1587C65.189 60.6104 65.2709 59.8673 65.0393 59.2425C65.1319 59.4924 64.9461 58.9924 65.0393 59.2425Z" fill="#F2CC46"/>
<path d="M61.4371 54.9483C61.2268 54.384 60.7211 53.9995 60.1426 53.9699C60.1426 53.9791 60.6127 53.8261 60.6669 53.7973C60.8659 53.6912 61.0383 53.5359 61.172 53.3486C61.4137 53.0093 61.5058 52.5782 61.4558 52.1612C61.3589 51.3567 60.6806 50.7299 59.9004 50.7713C59.9002 50.7673 59.8996 50.7634 59.8988 50.7595C60.7211 50.5829 61.1928 49.7135 60.9912 48.8742C60.9004 48.496 60.7003 48.163 60.394 47.9362C60.2189 47.8065 60.016 47.7227 59.8041 47.6897C59.7377 47.6792 59.1781 47.7038 59.1847 47.7224C59.9428 47.3554 60.2223 46.3925 59.8372 45.6245C59.454 44.8599 58.5788 44.512 57.8347 44.9458C57.8389 44.9529 58.1568 44.5636 58.1879 44.5086C58.2905 44.3271 58.3511 44.1251 58.3724 43.9155C58.4153 43.4928 58.2737 43.0592 58.0102 42.7386C57.4735 42.0848 56.5483 41.9514 55.9155 42.5427C55.9176 42.5448 56.1358 42.128 56.155 42.0706C56.225 41.8611 56.2458 41.6395 56.2219 41.4192C56.1764 40.9995 55.9531 40.6181 55.6367 40.3614C54.9845 39.8263 54.0343 39.9174 53.5397 40.6336C53.5452 40.637 53.6734 40.1458 53.6789 40.0822C53.6994 39.8546 53.666 39.6253 53.587 39.4126C53.4478 39.0388 53.1627 38.7386 52.8184 38.5679C52.0717 38.1917 51.163 38.4948 50.8264 39.3037C50.8282 39.3045 50.8587 38.8322 50.8532 38.7714C50.8324 38.5519 50.7629 38.3436 50.6542 38.1553C50.4571 37.814 50.1278 37.5722 49.7627 37.4672C48.9393 37.2306 48.071 37.7236 47.9046 38.621C47.9104 38.6218 47.8291 38.1207 47.8083 38.0599C47.7411 37.8624 47.6332 37.6848 47.4927 37.5358C47.2089 37.2343 46.8043 37.0611 46.3987 37.0703C45.987 37.0797 45.598 37.2298 45.3069 37.5408C45.1671 37.6903 45.0602 37.8706 44.9942 38.0683C44.9736 38.1291 44.8947 38.6299 44.9002 38.6294C44.7344 37.7584 43.9239 37.2864 43.1179 37.4624C42.7441 37.5442 42.4025 37.7839 42.1885 38.1139C42.07 38.2962 41.9908 38.5019 41.9611 38.7206C41.9519 38.7876 41.9726 39.3309 41.9819 39.3275C41.6405 38.5181 40.7508 38.2378 40.0009 38.5933C39.6339 38.7672 39.3415 39.0988 39.2067 39.4957C39.1428 39.6843 39.1156 39.8831 39.1298 40.083C39.1346 40.1503 39.2662 40.6773 39.2751 40.6713C38.7758 39.9562 37.848 39.8828 37.1891 40.3984C36.8664 40.6511 36.6485 41.0407 36.5984 41.4587C36.5745 41.6578 36.589 41.8585 36.644 42.0505C36.6627 42.1152 36.9006 42.6011 36.9085 42.593C36.2723 42.0046 35.3503 42.1445 34.8135 42.7988C34.2747 43.4556 34.3524 44.463 35.0081 44.9956C35.0102 44.9921 34.5787 44.8426 34.5216 44.8331C34.3089 44.7978 34.0881 44.814 33.8833 44.8845C33.4906 45.0199 33.1908 45.3157 33.0007 45.6952C32.6156 46.4638 32.9094 47.4285 33.6656 47.79C33.6722 47.7717 33.1113 47.7497 33.045 47.7604C32.8331 47.7945 32.6304 47.8793 32.4561 48.01C32.1511 48.2393 31.9544 48.5735 31.8636 48.9515C31.7589 49.3876 31.8307 49.8639 32.0797 50.2332C32.1882 50.3954 32.3282 50.5334 32.489 50.6371C32.5385 50.6688 32.9639 50.8496 32.9644 50.8443C32.2313 50.8071 31.5764 51.3622 31.4322 52.1111C31.2569 53.0211 31.8294 53.9372 32.7312 54.0307C32.7312 54.021 32.2561 54.1499 32.2008 54.1758C32.0171 54.2622 31.8505 54.389 31.7154 54.5457C31.4454 54.8592 31.3198 55.2833 31.3406 55.7009C31.3606 56.1048 31.5091 56.4843 31.7836 56.7725C31.9257 56.9218 32.1008 57.0352 32.29 57.107C32.3511 57.1303 32.9081 57.2257 32.9049 57.2029C32.0605 57.3902 31.623 58.2604 31.8186 59.114C31.9084 59.5062 32.1592 59.8624 32.4867 60.0707C32.6736 60.1896 32.881 60.2622 33.0997 60.2758C33.1602 60.2795 33.708 60.2116 33.6977 60.1873C32.8915 60.6009 32.713 61.6033 33.1737 62.3711C33.3777 62.7103 33.7209 62.9731 34.0976 63.0535C34.3026 63.0972 34.5145 63.0954 34.7169 63.0383C34.7772 63.0215 35.3066 62.7541 35.2818 62.7263C34.6669 63.3859 34.8017 64.4214 35.4956 64.9558C36.1815 65.4839 37.1383 65.3526 37.5926 64.5686C37.5818 64.5626 37.4734 65.0456 37.4692 65.103C37.4534 65.3306 37.4879 65.5637 37.5771 65.7723C37.7424 66.1597 38.0527 66.4604 38.4323 66.6055C39.2109 66.9209 40.0948 66.54 40.3691 65.6981C40.3641 65.6965 40.3662 66.1754 40.3757 66.2346C40.4112 66.4544 40.4947 66.6618 40.6144 66.8455C40.8279 67.1726 41.168 67.383 41.532 67.4723C42.3533 67.6735 43.194 67.1354 43.3527 66.2595C43.3522 66.2595 43.4222 66.7242 43.4409 66.7826C43.5075 66.9921 43.618 67.1834 43.7602 67.346C44.0276 67.6512 44.4103 67.8162 44.8015 67.8406C45.6069 67.8977 46.3442 67.2766 46.4035 66.4208C46.4064 66.4208 46.5127 66.8447 46.5353 66.8984C46.6159 67.0872 46.7341 67.2575 46.8802 67.3966C47.1934 67.6944 47.6132 67.8377 48.0331 67.8034C48.4068 67.773 48.7727 67.6193 49.0357 67.334C49.1797 67.1781 49.2931 66.9901 49.3644 66.7863C49.3868 66.7223 49.4747 66.1911 49.4666 66.1922C49.6332 67.0215 50.4302 67.5632 51.2244 67.3919C51.5918 67.3128 51.9419 67.115 52.1701 66.7975C52.2978 66.6202 52.3883 66.4132 52.4323 66.1961C52.4454 66.1306 52.4604 65.5836 52.4486 65.5871C52.7318 66.4221 53.6136 66.7965 54.3888 66.4795C54.7502 66.3454 55.0503 66.0559 55.218 65.6958C55.3122 65.4933 55.3591 65.273 55.3543 65.0474C55.353 64.9838 55.2477 64.4395 55.2314 64.4486C55.6804 65.2235 56.6375 65.3702 57.3224 64.8455C58.016 64.3145 58.1687 63.294 57.563 62.6223C57.5501 62.6365 57.9731 62.8879 58.0234 62.9079C58.229 62.988 58.4503 63.0063 58.667 62.9765C59.0794 62.9194 59.4421 62.6488 59.6746 62.2938C60.1563 61.5379 59.9667 60.5212 59.1734 60.1042C59.1673 60.1184 59.6369 60.2001 59.6914 60.2001C59.9136 60.2019 60.1307 60.143 60.326 60.0319C60.6859 59.8276 60.9583 59.4596 61.0578 59.042C61.2615 58.1888 60.8172 57.315 59.9752 57.1282C59.9704 57.1612 60.5879 57.035 60.6535 57.0064C60.8988 56.899 61.1065 56.7204 61.2597 56.4933C61.5579 56.0513 61.6237 55.452 61.4371 54.9483C61.5119 55.1497 61.3621 54.7466 61.4371 54.9483Z" fill="#F8E298"/>
<path d="M45.0632 51.7245C42.3539 55.0628 37.3053 56.5266 33.0695 55.2022C35.7252 55.829 38.6483 55.3766 40.9507 53.9823C38.7117 54.8789 36.1545 54.9654 33.791 54.4216C31.4273 53.8775 29.2505 52.7283 27.3724 51.2727C29.018 52.0897 30.664 52.9067 32.3096 53.7237C31.4657 53.2247 30.6421 52.694 29.8556 52.1177C28.3273 50.9989 26.9244 49.69 25.9602 48.1099C24.9963 46.5298 24.4969 44.6551 24.8283 42.8599C25.2629 40.5071 27.017 38.5917 28.7022 36.8063C29.2642 36.2109 29.8343 35.6087 30.5368 35.1647C31.3228 34.668 32.2386 34.3919 33.1406 34.1219C34.5036 33.7137 35.89 33.302 37.3201 33.2794C39.0584 33.2522 40.7425 33.8012 42.3773 34.3576C41.2989 33.565 40.1105 32.9051 38.8515 32.4001C39.8412 32.246 40.8612 32.4952 41.763 32.9085C43.6121 33.7562 45.0506 35.2802 45.9845 37.0051C46.9184 38.7298 47.3796 40.6507 47.616 42.5736C47.7626 43.766 47.8244 44.988 47.5238 46.1547C47.2864 47.0755 46.8303 47.9336 46.3238 48.7525C45.4452 50.1733 44.4039 51.505 43.2233 52.7165L45.0632 51.7245Z" fill="#F7A80E"/>
<path d="M48.3678 51.7245C51.0771 55.0628 56.1257 56.5266 60.3618 55.2022C57.7061 55.829 54.783 55.3766 52.4806 53.9823C54.7196 54.8789 57.2765 54.9654 59.6403 54.4216C62.0037 53.8775 64.1806 52.7283 66.0589 51.2727C64.413 52.0897 62.7673 52.9067 61.1214 53.7237C61.9656 53.2247 62.7889 52.694 63.5757 52.1177C65.1037 50.9989 66.5069 49.69 67.4708 48.1099C68.4348 46.5298 68.9344 44.6551 68.6027 42.8599C68.1681 40.5071 66.414 38.5917 64.7291 36.8063C64.1672 36.2109 63.597 35.6087 62.8945 35.1647C62.1085 34.668 61.1925 34.3919 60.2904 34.1219C58.9277 33.7137 57.5411 33.302 56.1113 33.2794C54.3727 33.2522 52.6888 33.8012 51.0537 34.3576C52.1324 33.565 53.3208 32.9051 54.5796 32.4001C53.5901 32.246 52.5699 32.4952 51.6683 32.9085C49.8189 33.7562 48.3807 35.2802 47.4465 37.0051C46.5126 38.7298 46.0514 40.6507 45.8151 42.5736C45.6685 43.766 45.6069 44.988 45.9075 46.1547C46.1446 47.0755 46.6008 47.9336 47.1072 48.7525C47.9859 50.1733 49.0274 51.505 50.208 52.7165L48.3678 51.7245Z" fill="#F7A80E"/>
<path d="M65.9584 43.32C65.9584 48.632 61.631 52.9385 56.2932 52.9385C50.9553 52.9385 46.6279 48.632 46.6279 43.32C46.6279 38.0079 50.9553 33.7015 56.2932 33.7015C61.631 33.7015 65.9584 38.0079 65.9584 43.32Z" fill="#523B1A"/>
<path d="M64.6653 43.6332C64.6653 48.446 60.7449 52.3472 55.9087 52.3472C51.0728 52.3472 47.1523 48.446 47.1523 43.6332C47.1523 38.8207 51.0728 34.9192 55.9087 34.9192C60.7449 34.9192 64.6653 38.8207 64.6653 43.6332Z" fill="#D1B86C"/>
<path d="M64.6653 43.6332C64.6653 48.446 60.7449 52.3472 55.9087 52.3472C51.0728 52.3472 47.1523 48.446 47.1523 43.6332C47.1523 38.8207 51.0728 34.9192 55.9087 34.9192C60.7449 34.9192 64.6653 38.8207 64.6653 43.6332Z" fill="#D1B86C"/>
<path d="M63.8261 43.6331C63.8261 47.9845 60.2816 51.5122 55.9087 51.5122C51.536 51.5122 47.9912 47.9845 47.9912 43.6331C47.9912 39.2816 51.536 35.7539 55.9087 35.7539C60.2816 35.7539 63.8261 39.2816 63.8261 43.6331Z" fill="#F3ED99"/>
<path d="M56.8738 44.6431C56.8738 46.7277 55.1758 48.4175 53.0811 48.4175C50.9866 48.4175 49.2886 46.7277 49.2886 44.6431C49.2886 42.5585 50.9866 40.8687 53.0811 40.8687C55.1758 40.8687 56.8738 42.5585 56.8738 44.6431Z" fill="#D4C18D"/>
<path d="M55.8251 44.6427C55.8251 46.151 54.5966 47.3735 53.081 47.3735C51.5656 47.3735 50.3369 46.151 50.3369 44.6427C50.3369 43.1347 51.5656 41.9119 53.081 41.9119C54.5966 41.9119 55.8251 43.1347 55.8251 44.6427Z" fill="#2E2227"/>
<path d="M53.0812 43.8431C53.0812 44.285 52.7213 44.6431 52.2773 44.6431C51.8332 44.6431 51.4731 44.285 51.4731 43.8431C51.4731 43.4012 51.8332 43.0428 52.2773 43.0428C52.7213 43.0428 53.0812 43.4012 53.0812 43.8431Z" fill="white"/>
<path d="M53.633 37.7732C54.285 38.3942 53.9152 39.8315 52.8071 40.9833C51.6989 42.1351 50.272 42.5652 49.6202 41.9442C48.9682 41.3231 49.3381 39.8858 50.4462 38.734C51.5544 37.5822 52.981 37.1521 53.633 37.7732Z" fill="white"/>
<path d="M57.6749 50.0876C53.4999 50.0876 49.9064 47.6101 48.2974 44.0518C48.3932 46.8992 50.137 49.5606 52.9622 50.6969C55.4649 51.7036 58.194 51.2635 60.2142 49.7727C59.4022 49.9781 58.5514 50.0876 57.6749 50.0876Z" fill="#D4C18D"/>
<path d="M26.4937 43.32C26.4937 48.632 30.8208 52.9385 36.1589 52.9385C41.4968 52.9385 45.8241 48.632 45.8241 43.32C45.8241 38.0079 41.4968 33.7015 36.1589 33.7015C30.8208 33.7015 26.4937 38.0079 26.4937 43.32Z" fill="#523B1A"/>
<path d="M27.7866 43.6332C27.7866 48.446 31.707 52.3472 36.5432 52.3472C41.3791 52.3472 45.2996 48.446 45.2996 43.6332C45.2996 38.8207 41.3791 34.9192 36.5432 34.9192C31.707 34.9192 27.7866 38.8207 27.7866 43.6332Z" fill="#D1B86C"/>
<path d="M27.7866 43.6332C27.7866 48.446 31.707 52.3472 36.5432 52.3472C41.3791 52.3472 45.2996 48.446 45.2996 43.6332C45.2996 38.8207 41.3791 34.9192 36.5432 34.9192C31.707 34.9192 27.7866 38.8207 27.7866 43.6332Z" fill="#D1B86C"/>
<path d="M28.6255 43.6331C28.6255 47.9845 32.1703 51.5122 36.5432 51.5122C40.9158 51.5122 44.4606 47.9845 44.4606 43.6331C44.4606 39.2816 40.9158 35.7539 36.5432 35.7539C32.1703 35.7539 28.6255 39.2816 28.6255 43.6331Z" fill="#F3ED99"/>
<path d="M35.4946 43.6333C35.4946 45.7179 37.1927 47.4077 39.2871 47.4077C41.3818 47.4077 43.0799 45.7179 43.0799 43.6333C43.0799 41.5487 41.3818 39.8589 39.2871 39.8589C37.1927 39.8589 35.4946 41.5487 35.4946 43.6333Z" fill="#D4C18D"/>
<path d="M36.5435 43.633C36.5435 45.1413 37.7719 46.3638 39.2873 46.3638C40.8029 46.3638 42.0314 45.1413 42.0314 43.633C42.0314 42.1249 40.8029 40.9021 39.2873 40.9021C37.7719 40.9021 36.5435 42.1249 36.5435 43.633Z" fill="#2E2227"/>
<path d="M39.2871 42.8333C39.2871 43.2752 39.6472 43.6333 40.0913 43.6333C40.5353 43.6333 40.8951 43.2752 40.8951 42.8333C40.8951 42.3914 40.5353 42.0331 40.0913 42.0331C39.6472 42.0331 39.2871 42.3914 39.2871 42.8333Z" fill="white"/>
<path d="M34.2439 37.7732C34.8959 38.3942 34.5261 39.8315 33.4179 40.9833C32.3097 42.1351 30.8831 42.5652 30.2311 41.9442C29.5791 41.3231 29.9489 39.8858 31.0571 38.734C32.1652 37.5822 33.5922 37.1521 34.2439 37.7732Z" fill="white"/>
<path d="M34.7768 50.0876C38.9521 50.0876 42.5456 47.6101 44.1546 44.0518C44.0588 46.8992 42.315 49.5606 39.4898 50.6969C36.9871 51.7036 34.258 51.2635 32.2378 49.7727C33.0498 49.9781 33.9006 50.0876 34.7768 50.0876Z" fill="#D4C18D"/>
<path d="M47.7964 44.5573C47.5545 44.2933 47.2723 44.056 46.9425 43.974C46.6222 43.8946 46.2518 43.9944 46.0536 44.2839C45.8559 43.9939 45.4858 43.8933 45.1652 43.9721C44.8351 44.0531 44.5524 44.2899 44.31 44.5531C43.0197 45.9548 42.6651 48.1699 42.9592 50.1536C43.2534 52.1373 44.1052 53.9545 44.9449 55.7326C45.007 55.8638 45.5316 56.6774 46.0481 56.6782C46.5648 56.6787 47.0731 55.8662 47.1352 55.7349C47.9791 53.9589 48.8353 52.1436 49.1341 50.1607C49.4328 48.1777 49.0833 45.9616 47.7964 44.5573Z" fill="#2D1615"/>
<path d="M45.0648 44.3197C44.8235 44.3632 44.644 44.5693 44.4979 44.7723C43.4608 46.2152 43.1257 48.0973 43.2534 49.8885C43.395 51.8735 44.0765 53.8145 45.2004 55.4323C45.3949 55.7126 45.6779 56.0144 46.0048 55.9437C46.3799 55.8625 46.4918 55.3747 46.5263 54.981C46.8124 51.7245 47.024 48.36 46.0188 45.2591C45.9427 45.0238 45.8564 44.7852 45.7 44.5966C45.5436 44.408 45.3017 44.2767 45.0648 44.3197Z" fill="#EE8B40"/>
<path d="M46.7391 44.3175C46.4106 44.3961 46.2561 44.7634 46.1587 45.0853C45.1601 48.3856 45.0103 51.9366 45.7276 55.3084C45.7784 55.5467 45.8663 55.8223 46.099 55.8983C46.3904 55.9936 46.656 55.7068 46.8202 55.449C48.3116 53.1051 48.987 50.2572 48.7057 47.4968C48.5946 46.4071 48.2898 45.2495 47.438 44.5556C47.2403 44.3948 46.9876 44.2583 46.7391 44.3175Z" fill="#F2591D"/>
<path d="M46.8202 50.6105C46.8202 53.2827 46.4406 55.4487 45.9726 55.4487C45.5043 55.4487 45.125 53.2827 45.125 50.6105C45.125 47.9384 45.5043 45.7724 45.9726 45.7724C46.4406 45.7724 46.8202 47.9384 46.8202 50.6105Z" fill="#F3DE3E"/>
<path d="M46.0849 49.0014C46.2734 48.9433 46.349 48.7203 46.3774 48.526C46.4674 47.912 46.3603 47.2712 46.0757 46.7193C45.619 47.1586 45.4364 47.8394 45.5417 48.4626C45.5656 48.6053 45.6059 48.7505 45.6983 48.8623C45.7907 48.9739 45.946 49.0444 46.0849 49.0014Z" fill="white"/>
<path d="M46.2401 50.5451C46.1419 50.1728 46.0437 49.8006 45.9455 49.4286C45.737 49.8064 45.6425 50.2457 45.6775 50.6753C45.687 50.7942 45.7081 50.9168 45.776 51.015C45.8439 51.1135 45.9697 51.1808 46.085 51.1486C46.1971 51.1174 46.2687 51.0022 46.284 50.8872C46.2995 50.7724 46.2695 50.6569 46.2401 50.5451Z" fill="white"/>
<path d="M21.0632 52.8354C16.7679 58.9977 14.6121 66.6084 15.0409 74.0962C15.6521 72.9001 16.2633 71.7041 16.8745 70.5078C16.7111 70.9895 16.5455 71.4843 16.5652 71.9922C16.5847 72.4999 16.8303 73.0316 17.2923 73.248C17.7642 73.4691 18.3467 73.3056 18.7487 72.9751C19.1506 72.6442 19.4075 72.1743 19.6402 71.7098C20.6386 69.7177 21.3751 67.5954 21.8249 65.4147C22.06 66.2576 21.7146 67.1415 21.6604 68.0145C21.6065 68.8876 22.0989 69.9681 22.9773 69.9325C23.7849 69.9 24.2071 68.9816 24.4292 68.2084C26.1347 62.27 26.8219 56.0435 26.4521 49.8783C26.4274 49.4647 26.3671 48.9945 26.0257 48.7574C25.6993 48.5303 25.2297 48.6246 24.917 48.87C24.6043 49.1152 24.4121 49.4783 24.2289 49.8301L21.0632 52.8354Z" fill="#F2591D"/>
<path d="M15.0409 74.375C15.0217 74.375 15.0025 74.3729 14.9833 74.3687C14.8596 74.343 14.7685 74.2377 14.7614 74.1123C14.3271 66.5302 16.4836 58.9174 20.8331 52.6773C20.9213 52.5508 21.0955 52.5191 21.2227 52.6071C21.3496 52.6946 21.3811 52.868 21.293 52.9945C17.2167 58.8425 15.0986 65.9154 15.2765 73.0207L16.6247 70.3821C16.6913 70.2519 16.8477 70.1951 16.9827 70.2517C17.118 70.3082 17.1864 70.4591 17.1393 70.5972C16.9856 71.0503 16.8266 71.519 16.8445 71.9816C16.8579 72.3336 17.0148 72.8106 17.4112 72.9964C17.7955 73.1771 18.2699 73.0074 18.5705 72.7609C18.9329 72.4625 19.1738 72.0169 19.3896 71.5858C20.3783 69.6133 21.1053 67.5185 21.5507 65.359C21.5767 65.2333 21.686 65.141 21.8152 65.1366C21.9429 65.134 22.0597 65.2165 22.0945 65.3407C22.2674 65.9609 22.1598 66.5815 22.0558 67.1816C22.005 67.4761 21.9568 67.7542 21.9394 68.0319C21.9076 68.549 22.0892 69.103 22.3917 69.4103C22.5599 69.5811 22.7528 69.6646 22.9657 69.6544C23.5988 69.6293 23.9647 68.8128 24.16 68.1322C25.8651 62.1949 26.5421 56.0593 26.1726 49.8954C26.1499 49.5182 26.097 49.147 25.8651 48.9856C25.6435 48.8319 25.3005 48.9243 25.0897 49.0891C24.8191 49.3013 24.6454 49.6355 24.4772 49.9585C24.4064 50.0947 24.2374 50.1476 24.1002 50.0777C23.9628 50.007 23.9094 49.8388 23.9805 49.7021C24.1666 49.3442 24.3777 48.9385 24.7433 48.6517C25.1099 48.3646 25.7172 48.2035 26.1857 48.5293C26.6127 48.8264 26.7001 49.3453 26.7311 49.8621C27.1046 56.0889 26.4205 62.2874 24.698 68.2852C24.34 69.5321 23.7649 70.1799 22.9884 70.2111C22.6159 70.2197 22.2714 70.084 21.9918 69.8001C21.6212 69.4234 21.3898 68.8141 21.3767 68.2051C20.9742 69.4493 20.4775 70.6632 19.8903 71.8346C19.6481 72.3184 19.3738 72.8222 18.9269 73.1899C18.3938 73.6279 17.7055 73.7492 17.173 73.5004C16.7192 73.2879 16.3944 72.8041 16.307 72.2323L15.2899 74.2228C15.2418 74.3174 15.1444 74.375 15.0409 74.375Z" fill="#292625"/>
<path d="M71.5286 52.6489C75.7198 58.8655 77.8232 66.5426 77.405 74.0962C76.8085 72.8897 76.2121 71.6829 75.6159 70.4763C75.7754 70.9622 75.9367 71.4613 75.9178 71.9736C75.8986 72.486 75.659 73.0222 75.2081 73.2407C74.7478 73.4636 74.1792 73.2988 73.787 72.9651C73.3948 72.6316 73.144 72.1575 72.9171 71.6889C71.9429 69.6792 71.2243 67.5383 70.7852 65.3385C70.556 66.1887 70.8929 67.0804 70.9458 67.9611C70.9984 68.842 70.5178 69.9317 69.6607 69.8961C68.8729 69.8631 68.4607 68.9369 68.2441 68.1568C66.58 62.1663 65.9093 55.885 66.2702 49.6658C66.2944 49.2485 66.3534 48.7742 66.6863 48.5347C67.0048 48.306 67.4628 48.4011 67.7682 48.6484C68.0732 48.896 68.2607 49.2622 68.4394 49.6171L71.5286 52.6489Z" fill="#F2591D"/>
<path d="M77.4045 74.375C77.2997 74.375 77.2012 74.3158 77.1536 74.2191L76.1726 72.2349C76.0833 72.8009 75.7683 73.2793 75.3303 73.4914C74.8057 73.7458 74.1284 73.6222 73.6048 73.1771C73.169 72.8064 72.9013 72.2985 72.6646 71.8103C72.0984 70.6417 71.6181 69.432 71.228 68.1914C71.2066 68.8041 70.9755 69.4074 70.6097 69.7781C70.3388 70.0526 70.0082 70.1854 69.6489 70.1749C68.8871 70.143 68.3236 69.4891 67.974 68.2313C66.2936 62.1821 65.6263 55.9307 65.9906 49.6499C66.0206 49.1308 66.1059 48.609 66.5221 48.3096C66.9188 48.0246 67.5034 48.0756 67.9445 48.4329C68.3015 48.7221 68.5076 49.1318 68.6894 49.493C68.7584 49.6303 68.7026 49.7977 68.5644 49.8663C68.426 49.936 68.258 49.8794 68.1888 49.7421C68.0248 49.416 67.855 49.0786 67.591 48.8646C67.3894 48.7012 67.0612 48.6097 66.8498 48.7609C66.6232 48.9238 66.5716 49.3 66.5492 49.6822C66.1886 55.9016 66.8493 62.0925 68.5134 68.0827C68.7042 68.7693 69.0601 69.5926 69.6723 69.6183C69.8668 69.6295 70.0511 69.5489 70.2103 69.388C70.5102 69.0842 70.6976 68.5045 70.6662 67.9782C70.6494 67.6974 70.6023 67.4166 70.5525 67.1195C70.4512 66.515 70.3467 65.89 70.5146 65.2665C70.5486 65.1416 70.6683 65.0596 70.7942 65.0604C70.9242 65.0648 71.034 65.1576 71.0595 65.2846C71.4941 67.4635 72.2037 69.5774 73.1687 71.5682C73.3795 72.0033 73.6149 72.4531 73.9684 72.7535C74.2584 73.0008 74.7162 73.17 75.0852 72.9906C75.4034 72.8368 75.6203 72.4337 75.638 71.9638C75.6553 71.4946 75.4998 71.021 75.3495 70.5631C75.3039 70.4243 75.374 70.2739 75.5101 70.2189C75.6467 70.1631 75.8017 70.2226 75.8667 70.3538L77.1683 72.9875C77.3368 65.8255 75.27 58.6984 71.2959 52.8041C71.2098 52.6765 71.244 52.5036 71.3722 52.4179C71.5004 52.332 71.6744 52.3658 71.7607 52.4942C76.0041 58.7878 78.1075 66.4652 77.684 74.1117C77.6769 74.238 77.5853 74.3441 77.4605 74.3692C77.4418 74.3729 77.4229 74.375 77.4045 74.375Z" fill="#292625"/>
<path d="M38.4035 86.2175C37.9215 85.8754 37.2413 86.108 36.757 86.4464C35.6554 87.2165 34.9539 88.4592 34.6162 89.7561C34.2785 91.053 34.2732 92.4118 34.3351 93.7501C34.3443 93.9502 34.3801 94.1891 34.563 94.2727C34.8089 94.3853 35.0516 94.1189 35.1908 93.8881C35.9286 92.6677 36.6662 91.4473 37.404 90.2271C37.7983 89.5746 38.1934 88.9208 38.5153 88.23C38.6701 87.8984 38.8093 87.5497 38.8228 87.1843C38.8362 86.8186 38.7027 86.4299 38.4035 86.2175Z" fill="#EDA263"/>
<path d="M37.847 86.3276C37.5714 86.3276 37.2326 86.4538 36.9175 86.6741C35.9634 87.341 35.2424 88.4604 34.8868 89.8256C34.5483 91.1252 34.5559 92.4737 34.6143 93.737C34.6262 93.9924 34.6794 94.0197 34.6799 94.0197L34.682 94.0207C34.7165 94.0207 34.8341 93.9374 34.9507 93.7444L37.1642 90.0834C37.5482 89.4476 37.9457 88.7901 38.2613 88.1127C38.4005 87.8139 38.5311 87.4932 38.5427 87.1737C38.5516 86.9311 38.4769 86.6118 38.2405 86.4439C38.1305 86.3656 38.0017 86.3276 37.847 86.3276ZM34.682 94.5776C34.6009 94.5776 34.5214 94.5603 34.4459 94.5258C34.0829 94.3592 34.0629 93.9259 34.0553 93.7627C33.9979 92.5182 33.9871 91.0607 34.3451 89.686C34.7339 88.1929 35.5333 86.9615 36.5956 86.2183C36.8352 86.0512 37.3158 85.7707 37.847 85.7707C38.1184 85.7707 38.36 85.8448 38.5656 85.9907C38.9146 86.2385 39.1202 86.6998 39.102 87.1941C39.0868 87.6119 38.933 87.9954 38.769 88.3472C38.4408 89.0516 38.0354 89.7222 37.6435 90.3702L35.4306 94.0315C35.3071 94.2353 35.046 94.5776 34.682 94.5776Z" fill="#292625"/>
<path d="M37.5587 88.5324C37.6195 88.2243 37.6666 87.9053 37.6005 87.5983C37.4824 88.1677 37.0996 88.677 36.5842 88.9505C36.6922 89.3719 36.7035 89.8296 36.5387 90.2322C36.3737 90.6348 36.0123 90.9711 35.58 91.0353C35.6409 91.7811 35.49 92.5426 35.1494 93.2095C35.7775 92.1085 36.4052 91.0078 37.033 89.9068C37.1491 89.7038 37.2652 89.4998 37.3523 89.2829C37.4492 89.0416 37.5087 88.7873 37.5587 88.5324Z" fill="#DC7029"/>
<path d="M40.1709 86.2175C40.6529 85.8754 41.3331 86.108 41.8177 86.4464C42.9192 87.2165 43.6207 88.4592 43.9582 89.7561C44.2959 91.053 44.3014 92.4118 44.2393 93.7501C44.2301 93.9502 44.1945 94.1891 44.0116 94.2727C43.7658 94.3853 43.5231 94.1189 43.3836 93.8881C42.646 92.6677 41.9082 91.4473 41.1704 90.2271C40.7761 89.5746 40.381 88.9208 40.0591 88.23C39.9046 87.8984 39.7651 87.5497 39.7519 87.1843C39.7385 86.8186 39.8719 86.4299 40.1709 86.2175Z" fill="#EDA263"/>
<path d="M40.7276 86.3276C40.5728 86.3276 40.4438 86.3656 40.3338 86.4439C40.0974 86.6118 40.0227 86.9311 40.0316 87.1737C40.0432 87.493 40.1738 87.8139 40.3133 88.1127C40.6294 88.7912 41.0263 89.4482 41.4104 90.0834L43.6235 93.7444C43.7396 93.9367 43.8573 94.0202 43.892 94.0207C43.8965 94.0189 43.9484 93.9893 43.9599 93.737C44.0186 92.4739 44.026 91.1254 43.6878 89.8256C43.3322 88.4604 42.6109 87.3413 41.6567 86.6741C41.3419 86.4538 41.0029 86.3276 40.7276 86.3276ZM43.8923 94.0207V94.2992V94.0207ZM43.8923 94.5776C43.5288 94.5776 43.2674 94.2355 43.144 94.0315L40.9311 90.3702C40.5391 89.7224 40.1343 89.0526 39.8055 88.3472C39.6415 87.9951 39.4875 87.6116 39.4723 87.1941C39.4544 86.6998 39.6597 86.2385 40.0087 85.9907C40.2143 85.8448 40.4559 85.7707 40.7276 85.7707C41.2585 85.7707 41.7391 86.0512 41.9787 86.2183C43.0413 86.9615 43.8407 88.1929 44.2292 89.686C44.5875 91.061 44.5767 92.5185 44.519 93.7627C44.5124 93.9102 44.4914 94.3592 44.1287 94.5258C44.0529 94.5603 43.9736 94.5776 43.8923 94.5776Z" fill="#292625"/>
<path d="M42.0937 88.7373C42.0458 89.2225 42.1287 89.7199 42.3314 90.1636C42.403 90.3208 42.492 90.4743 42.6228 90.5875C42.7536 90.7006 42.9326 90.769 43.1024 90.7352C43.0221 91.1845 43.1611 91.6429 43.3311 92.0667C43.4417 92.3417 43.5659 92.6113 43.7036 92.874C43.6141 92.8345 43.5496 92.7554 43.4888 92.6789C43.174 92.281 42.8718 91.8736 42.5694 91.4663C42.4327 91.2822 42.2961 91.098 42.1593 90.9139C42.075 90.8002 41.9905 90.6865 41.9095 90.5705C41.3441 89.7605 40.9453 88.8358 40.745 87.8698C40.6855 87.5824 40.6484 87.2633 40.8018 87.0127C41.1148 87.6712 41.462 88.3688 42.0937 88.7373Z" fill="#DC7029"/>
<path d="M40.9834 89.1384C40.9834 91.1279 40.204 94.8232 39.2422 94.8232C38.2806 94.8232 37.501 91.1279 37.501 89.1384C37.501 87.1489 38.2806 85.5361 39.2422 85.5361C40.204 85.5361 40.9834 87.1489 40.9834 89.1384Z" fill="#EDA263"/>
<path d="M39.2422 85.8144C38.551 85.8144 37.7808 87.1795 37.7808 89.1383C37.7808 91.3615 38.6413 94.5444 39.2422 94.5444C39.8431 94.5444 40.7036 91.3615 40.7036 89.1383C40.7036 87.1795 39.9334 85.8144 39.2422 85.8144ZM39.2422 95.1016C37.9087 95.1016 37.2212 90.9216 37.2212 89.1383C37.2212 86.9623 38.1088 85.2575 39.2422 85.2575C40.3756 85.2575 41.2632 86.9623 41.2632 89.1383C41.2632 90.9216 40.5757 95.1016 39.2422 95.1016Z" fill="#292625"/>
<path d="M36.0854 87.9924C36.0951 88.121 36.1796 88.2308 36.2683 88.3248C36.3447 88.4058 36.4384 88.4862 36.55 88.4878C36.7258 88.4901 36.8374 88.3065 36.9114 88.1478C37.0069 87.9427 37.1041 87.7328 37.1291 87.5081C37.1543 87.2833 37.0954 87.0368 36.9232 86.8894C36.6905 87.1026 36.4731 87.3321 36.2731 87.5759C36.1738 87.6967 36.0738 87.8368 36.0854 87.9924Z" fill="#F3ED99"/>
<path d="M35.778 88.6061C35.7027 88.6205 35.6548 88.6923 35.6176 88.7591C35.2844 89.36 35.1341 90.0597 35.191 90.7439C35.197 90.8175 35.217 90.9055 35.2873 90.9288C35.3731 90.9571 35.4473 90.8657 35.4913 90.7869C35.665 90.4754 35.8385 90.1637 36.0122 89.8522C36.1083 89.6801 36.207 89.4965 36.1983 89.3C36.1899 89.1036 35.9719 88.5695 35.778 88.6061Z" fill="#F3ED99"/>
<path d="M34.9711 92.9431C35.1108 92.6217 35.1943 92.2762 35.2167 91.9267C35.2245 91.8049 35.2243 91.6784 35.1764 91.566C35.1285 91.4537 35.0227 91.3583 34.9 91.3562C34.7966 91.6789 34.7381 92.0158 34.7265 92.3542C34.7192 92.5688 34.7363 92.8001 34.8718 92.9669C34.8829 92.9808 34.8968 92.995 34.9145 92.996C34.9421 92.9978 34.96 92.9682 34.9711 92.9431Z" fill="#F3ED99"/>
<path d="M38.218 89.1489C38.263 89.2998 38.3488 89.4598 38.5015 89.5023C38.6507 89.5437 38.8113 89.4504 38.8953 89.3207C38.9792 89.1911 39.0035 89.0331 39.0227 88.8801C39.1259 88.0608 39.1477 87.2312 39.088 86.4076C39.0814 86.3196 39.0445 86.2046 38.9561 86.2104C38.9108 86.2135 38.8763 86.2507 38.8479 86.2858C38.4386 86.7932 38.2606 87.4483 38.1791 88.0938C38.1346 88.4456 38.1167 88.8089 38.218 89.1489Z" fill="#F3ED99"/>
<path d="M38.6036 89.826C38.5407 89.8394 38.4804 89.874 38.4462 89.9282C38.4259 89.9604 38.4154 89.9976 38.4065 90.0345C38.2896 90.5131 38.3854 91.0176 38.5233 91.4907C38.5576 91.6086 38.597 91.7299 38.6813 91.8194C38.7292 91.87 38.7976 91.9098 38.8661 91.897C38.9692 91.8776 39.0145 91.7584 39.0374 91.6565C39.1193 91.2958 39.1532 90.9244 39.1432 90.5548C39.1385 90.3816 39.1222 90.2022 39.0353 90.0521C38.9487 89.902 38.7737 89.7896 38.6036 89.826Z" fill="#F3ED99"/>
<path d="M42.2659 87.5194C42.0369 87.2632 41.7902 87.0104 41.4791 86.8632C41.4362 86.8428 41.3872 86.8244 41.3428 86.8407C41.3088 87.0337 41.367 87.2336 41.4649 87.4036C41.5628 87.5733 41.6986 87.7182 41.8331 87.8612C41.9455 87.9807 42.0577 88.0999 42.1701 88.2193C42.269 88.3243 42.3935 88.4388 42.5362 88.4147C42.6254 88.2725 42.6165 88.0857 42.553 87.9304C42.4896 87.775 42.378 87.6446 42.2659 87.5194Z" fill="#F3ED99"/>
<path d="M43.1754 89.6301C43.2412 89.3375 43.092 89.0407 42.9203 88.7944C42.8714 88.7245 42.7882 88.6475 42.7129 88.6878C42.5805 88.9768 42.5858 89.3244 42.7266 89.6094C42.759 89.6751 42.8 89.7396 42.8606 89.7812C42.9211 89.8229 43.0051 89.8373 43.0693 89.8014C43.1296 89.7673 43.1601 89.6976 43.1754 89.6301Z" fill="#F3ED99"/>
<path d="M39.1841 94.1343C39.4978 94.129 39.6842 93.7903 39.7903 93.4964C40.3762 91.8729 40.567 90.1094 40.342 88.3989C40.232 87.5617 39.9795 86.668 39.2978 86.165C39.4915 87.9638 39.565 89.7755 39.5181 91.5842C39.5094 91.9156 39.4968 92.2469 39.4789 92.5778C39.4502 93.1082 39.4049 93.6507 39.1841 94.1343Z" fill="#DC7029"/>
<path d="M52.2808 86.2175C51.7991 85.8754 51.1186 86.108 50.6343 86.4464C49.5327 87.2165 48.8312 88.4592 48.4935 89.7561C48.1561 91.053 48.1505 92.4118 48.2127 93.7501C48.2219 93.9502 48.2574 94.1891 48.4403 94.2727C48.6862 94.3853 48.9289 94.1189 49.0684 93.8881C49.8059 92.6677 50.5438 91.4473 51.2813 90.2271C51.6759 89.5746 52.071 88.9208 52.3926 88.23C52.5474 87.8984 52.6866 87.5497 52.7001 87.1843C52.7135 86.8186 52.58 86.4299 52.2808 86.2175Z" fill="#EDA263"/>
<path d="M51.7243 86.3276C51.4487 86.3276 51.11 86.4538 50.7949 86.6741C49.841 87.3413 49.1197 88.4604 48.7641 89.8256C48.4259 91.1254 48.4335 92.4739 48.492 93.737C48.5035 93.9924 48.5567 94.0194 48.5572 94.0197L48.5596 94.0207C48.5938 94.0207 48.7117 93.9374 48.8284 93.7444L51.0415 90.0834C51.4258 89.4476 51.823 88.7901 52.1386 88.1127C52.2781 87.8139 52.4087 87.493 52.42 87.1739C52.4292 86.9311 52.3542 86.6118 52.1181 86.4439C52.0078 86.3656 51.8791 86.3276 51.7243 86.3276ZM48.5596 94.5776C48.4783 94.5776 48.3988 94.5603 48.3235 94.5258C47.9605 94.3594 47.9402 93.9259 47.9329 93.7627C47.8752 92.5185 47.8644 91.061 48.2227 89.686C48.6112 88.1929 49.4106 86.9615 50.4732 86.2183C50.7125 86.0512 51.1931 85.7707 51.7243 85.7707C51.9957 85.7707 52.2376 85.8448 52.4429 85.9907C52.7919 86.2385 52.9975 86.6998 52.9794 87.1941C52.9644 87.6116 52.8104 87.9951 52.6464 88.3472C52.3181 89.0516 51.9128 89.7222 51.5208 90.3702L49.3077 94.0315C49.1845 94.2353 48.9234 94.5776 48.5596 94.5776Z" fill="#292625"/>
<path d="M51.4366 88.5324C51.4972 88.2243 51.5443 87.9053 51.4782 87.5983C51.36 88.1677 50.9773 88.677 50.4619 88.9505C50.5698 89.3719 50.5814 89.8296 50.4164 90.2322C50.2513 90.6348 49.8902 90.9711 49.458 91.0353C49.5188 91.7811 49.368 92.5426 49.0273 93.2095C49.6551 92.1085 50.2829 91.0078 50.911 89.9068C51.0268 89.7038 51.1429 89.4998 51.23 89.2829C51.3269 89.0416 51.3863 88.7873 51.4366 88.5324Z" fill="#DC7029"/>
<path d="M54.0486 86.2175C54.5303 85.8754 55.2108 86.108 55.6951 86.4464C56.7967 87.2165 57.4982 88.4592 57.8359 89.7561C58.1736 91.053 58.1789 92.4118 58.117 93.7501C58.1075 93.9502 58.072 94.1891 57.8891 94.2727C57.6432 94.3853 57.4005 94.1189 57.261 93.8881C56.5235 92.6677 55.7856 91.4473 55.0481 90.2271C54.6538 89.5746 54.2584 88.9208 53.9368 88.23C53.782 87.8984 53.6428 87.5497 53.6293 87.1843C53.6159 86.8186 53.7494 86.4299 54.0486 86.2175Z" fill="#EDA263"/>
<path d="M54.605 86.3276C54.4502 86.3276 54.3215 86.3656 54.2112 86.4439C53.9751 86.6118 53.9004 86.9311 53.9091 87.1739C53.9206 87.493 54.0512 87.8139 54.1907 88.1127C54.5063 88.7901 54.9038 89.4476 55.2881 90.0834L57.501 93.7444C57.6173 93.9367 57.7347 94.0202 57.7695 94.0207C57.7739 94.0189 57.8261 93.989 57.8376 93.737C57.8961 92.4739 57.9035 91.1254 57.5652 89.8256C57.2096 88.4604 56.4886 87.3413 55.5345 86.6741C55.2194 86.4538 54.8806 86.3276 54.605 86.3276ZM57.7697 94.0207V94.2992V94.0207ZM57.7697 94.5776C57.406 94.5776 57.1448 94.2353 57.0214 94.0315L54.8085 90.3702C54.4166 89.7222 54.0112 89.0516 53.683 88.3472C53.519 87.9951 53.365 87.6116 53.3497 87.1941C53.3318 86.6998 53.5374 86.2385 53.8862 85.9907C54.0917 85.8448 54.3336 85.7707 54.605 85.7707C55.1359 85.7707 55.6168 86.0512 55.8561 86.2183C56.9187 86.9615 57.7181 88.1929 58.1069 89.686C58.4649 91.061 58.4541 92.5185 58.3967 93.7627C58.3899 93.9102 58.3691 94.3592 58.0064 94.5258C57.9306 94.5603 57.8511 94.5776 57.7697 94.5776Z" fill="#292625"/>
<path d="M55.9711 88.7373C55.9235 89.2225 56.0061 89.7199 56.2088 90.1636C56.2807 90.3208 56.3694 90.4743 56.5002 90.5875C56.631 90.7006 56.81 90.769 56.98 90.7352C56.8995 91.1845 57.0385 91.6429 57.2085 92.0667C57.3191 92.3417 57.4433 92.6113 57.581 92.874C57.4915 92.8345 57.427 92.7554 57.3665 92.6789C57.0516 92.281 56.7492 91.8736 56.4468 91.4663C56.3101 91.2822 56.1735 91.098 56.0369 90.9139C55.9524 90.8002 55.8679 90.6865 55.7869 90.5705C55.2215 89.7605 54.8227 88.8358 54.6226 87.8698C54.5629 87.5824 54.5258 87.2633 54.6792 87.0127C54.9922 87.6712 55.3396 88.3688 55.9711 88.7373Z" fill="#DC7029"/>
<path d="M54.8611 89.1384C54.8611 91.1279 54.0814 94.8232 53.1196 94.8232C52.1581 94.8232 51.3784 91.1279 51.3784 89.1384C51.3784 87.1489 52.1581 85.5361 53.1196 85.5361C54.0814 85.5361 54.8611 87.1489 54.8611 89.1384Z" fill="#EDA263"/>
<path d="M53.1196 85.8144C52.4284 85.8144 51.6582 87.1795 51.6582 89.1383C51.6582 91.3615 52.5187 94.5444 53.1196 94.5444C53.7206 94.5444 54.5811 91.3615 54.5811 89.1383C54.5811 87.1795 53.8109 85.8144 53.1196 85.8144ZM53.1196 95.1016C51.7864 95.1016 51.0986 90.9216 51.0986 89.1383C51.0986 86.9623 51.9865 85.2575 53.1196 85.2575C54.2531 85.2575 55.1407 86.9623 55.1407 89.1383C55.1407 90.9216 54.4531 95.1016 53.1196 95.1016Z" fill="#292625"/>
<path d="M49.9629 87.9924C49.9723 88.121 50.0568 88.2308 50.1455 88.3248C50.2221 88.4058 50.3156 88.4862 50.4272 88.4878C50.6033 88.4901 50.7146 88.3065 50.7886 88.1478C50.8844 87.9427 50.9813 87.7328 51.0065 87.5081C51.0315 87.2833 50.9729 87.0368 50.8004 86.8894C50.5678 87.1026 50.3503 87.3321 50.1503 87.5759C50.0511 87.6967 49.951 87.8368 49.9629 87.9924Z" fill="#F3ED99"/>
<path d="M49.6554 88.6061C49.5801 88.6205 49.5322 88.6923 49.4951 88.7591C49.1621 89.36 49.0115 90.0597 49.0684 90.7439C49.0747 90.8175 49.0945 90.9055 49.1647 90.9288C49.2505 90.9571 49.3248 90.8657 49.3687 90.7869C49.5425 90.4754 49.7162 90.1637 49.8899 89.8522C49.9857 89.6801 50.0844 89.4965 50.076 89.3C50.0673 89.1036 49.8496 88.5695 49.6554 88.6061Z" fill="#F3ED99"/>
<path d="M48.8488 92.9431C48.9883 92.6217 49.0717 92.2762 49.0941 91.9267C49.102 91.8049 49.1017 91.6784 49.0538 91.566C49.0059 91.4537 48.9001 91.3583 48.7774 91.3562C48.674 91.6789 48.6155 92.0158 48.604 92.3542C48.5966 92.5688 48.614 92.8001 48.7493 92.9669C48.7606 92.9808 48.7743 92.995 48.7919 92.996C48.8195 92.9978 48.8377 92.9682 48.8488 92.9431Z" fill="#F3ED99"/>
<path d="M52.0953 89.1489C52.1404 89.2998 52.2264 89.4598 52.3788 89.5023C52.5281 89.5437 52.6886 89.4504 52.7726 89.3207C52.8566 89.1911 52.8808 89.0331 52.9 88.8801C53.0035 88.0608 53.0253 87.2312 52.9653 86.4076C52.959 86.3196 52.9219 86.2046 52.8337 86.2104C52.7884 86.2135 52.7537 86.2507 52.7252 86.2858C52.3159 86.7932 52.138 87.4483 52.0564 88.0938C52.0122 88.4456 51.994 88.8089 52.0953 89.1489Z" fill="#F3ED99"/>
<path d="M52.4811 89.826C52.4182 89.8394 52.3581 89.874 52.3237 89.9282C52.3034 89.9604 52.2929 89.9976 52.2839 90.0345C52.167 90.5131 52.2629 91.0176 52.4008 91.4907C52.4353 91.6086 52.4745 91.7299 52.559 91.8194C52.6066 91.87 52.6751 91.9098 52.7438 91.897C52.8467 91.8776 52.8919 91.7584 52.9151 91.6565C52.9967 91.2958 53.0307 90.9244 53.0207 90.5548C53.0159 90.3816 52.9996 90.2022 52.913 90.0521C52.8261 89.902 52.6511 89.7896 52.4811 89.826Z" fill="#F3ED99"/>
<path d="M56.1432 87.5194C55.9142 87.2632 55.6675 87.0104 55.3564 86.8632C55.3138 86.8428 55.2645 86.8244 55.2203 86.8407C55.1861 87.0337 55.2443 87.2336 55.3422 87.4036C55.4401 87.5733 55.5759 87.7182 55.7104 87.8612C55.8228 87.9807 55.9352 88.0999 56.0474 88.2193C56.1463 88.3243 56.2711 88.4388 56.4135 88.4147C56.5027 88.2725 56.494 88.0857 56.4303 87.9304C56.3669 87.775 56.2553 87.6446 56.1432 87.5194Z" fill="#F3ED99"/>
<path d="M57.0527 89.6301C57.1188 89.3375 56.9696 89.0407 56.7977 88.7944C56.7487 88.7245 56.6655 88.6475 56.5903 88.6878C56.4581 88.9768 56.4631 89.3244 56.604 89.6094C56.6363 89.6751 56.6774 89.7396 56.7379 89.7812C56.7987 89.8229 56.8824 89.8373 56.9467 89.8014C57.0072 89.7673 57.0377 89.6976 57.0527 89.6301Z" fill="#F3ED99"/>
<path d="M53.0615 94.1343C53.3753 94.129 53.5614 93.7903 53.6675 93.4964C54.2534 91.8729 54.4442 90.1094 54.2194 88.3989C54.1091 87.5617 53.8567 86.668 53.175 86.165C53.3687 87.9638 53.4424 89.7755 53.3953 91.5842C53.3866 91.9156 53.374 92.2469 53.3561 92.5778C53.3274 93.1082 53.2821 93.6507 53.0615 94.1343Z" fill="#DC7029"/>
<path d="M28.5322 35.2325C25.8089 41.5936 24.2524 48.5099 21.8221 55.0214C19.3918 61.5326 15.857 67.8802 10.4209 71.358C9.32778 72.0574 8.11696 72.6429 6.86281 72.5706C6.85039 72.5698 6.83773 72.569 6.8252 72.5682C5.15721 72.4501 4.40045 70.4318 5.52759 69.2025C6.64289 67.986 7.24622 66.04 7.66501 64.27C8.95584 58.812 9.95187 53.2519 11.6389 47.9344C13.3261 42.6165 15.7707 37.4737 19.4929 33.7095C23.2148 29.9453 28.359 27.7151 33.268 28.7341C31.0338 30.0645 29.633 32.6609 28.5322 35.2325Z" fill="#D34B20"/>
<path d="M30.8423 28.7664C26.9856 28.7664 22.9214 30.6393 19.6925 33.905C16.4141 37.2203 13.8671 41.8368 11.9059 48.0186C10.7266 51.7351 9.87062 55.6415 9.04279 59.4193C8.68902 61.0327 8.32367 62.701 7.93726 64.334C7.54348 65.9992 6.93715 68.0788 5.73423 69.3907C5.27433 69.8926 5.14651 70.598 5.4012 71.2322C5.64857 71.8483 6.18839 72.2441 6.84521 72.2907L6.88008 72.2933C8.15389 72.3633 9.43973 71.6552 10.2699 71.1242C14.9055 68.1582 18.5985 62.8595 21.56 54.9248C22.5958 52.1495 23.4881 49.2492 24.3512 46.4445C25.5107 42.6761 26.7097 38.7796 28.2748 35.1236C29.1906 32.9845 30.4869 30.4033 32.5353 28.8879C31.9786 28.8073 31.4116 28.7664 30.8423 28.7664ZM7.07442 72.8555C6.99861 72.8555 6.92294 72.8534 6.84686 72.8492L6.80233 72.846C5.94265 72.7853 5.20541 72.2459 4.88155 71.4388C4.54665 70.6045 4.71508 69.6759 5.32089 69.015C6.43682 67.798 7.0144 65.8059 7.39265 64.2067C7.77775 62.5782 8.14284 60.9119 8.49582 59.3007C9.32654 55.5105 10.1852 51.5918 11.3723 47.8506C13.3607 41.5833 15.9518 36.8939 19.2934 33.5147C22.6271 30.1429 26.8366 28.2095 30.8423 28.2095C31.6822 28.2095 32.5177 28.2944 33.3253 28.462C33.4379 28.4853 33.5248 28.5752 33.544 28.6883C33.5632 28.8012 33.5106 28.9146 33.4119 28.9736C31.1566 30.3163 29.757 33.0823 28.7897 35.3421C27.2361 38.9709 26.0416 42.8532 24.8861 46.6077C24.0209 49.42 23.1259 52.3281 22.0846 55.1187C19.0792 63.1704 15.3138 68.5592 10.5724 71.5929C9.72506 72.1348 8.44028 72.8555 7.07442 72.8555Z" fill="#292625"/>
<path d="M61.9351 35.2325C64.6581 41.5936 66.2148 48.5099 68.6452 55.0214C71.0752 61.5326 74.6103 67.8802 80.0463 71.358C81.1395 72.0574 82.3503 72.6429 83.6043 72.5706C83.6169 72.5698 83.6293 72.569 83.6419 72.5682C85.31 72.4501 86.0667 70.4318 84.9396 69.2025C83.8244 67.986 83.2211 66.04 82.8023 64.27C81.5114 58.812 80.5154 53.2519 78.8281 47.9344C77.1412 42.6165 74.6966 37.4737 70.9744 33.7095C67.2524 29.9453 62.1083 27.7151 57.1992 28.7341C59.4332 30.0645 60.8343 32.6609 61.9351 35.2325Z" fill="#D34B20"/>
<path d="M57.932 28.8879C59.9799 30.403 61.2768 32.9845 62.1925 35.1236C63.7576 38.7796 64.9563 42.6761 66.1161 46.4442C66.9792 49.2492 67.8715 52.1492 68.9073 54.9248C71.8688 62.8595 75.5618 68.1582 80.1974 71.1242C81.0276 71.6552 82.2998 72.3688 83.5882 72.2931L83.6193 72.291C84.2789 72.2441 84.8185 71.8483 85.066 71.2322C85.3208 70.598 85.1928 69.8926 84.733 69.3907C83.5298 68.0783 82.9236 65.999 82.5301 64.334C82.1437 62.7005 81.7778 61.0314 81.424 59.4172C80.5962 55.6402 79.7405 51.7346 78.5615 48.0186C76.6002 41.8371 74.0533 37.2205 70.7749 33.905C67.069 30.1571 62.2589 28.2595 57.932 28.8879ZM83.3927 72.8555C82.0268 72.8555 80.7423 72.1348 79.895 71.5929C75.1538 68.5592 71.3882 63.1704 68.3827 55.1187C67.3411 52.3281 66.4465 49.4197 65.581 46.6074C64.4257 42.8529 63.2312 38.9709 61.6777 35.3421C60.7103 33.0823 59.3105 30.3163 57.0555 28.9736C56.9568 28.9146 56.9041 28.8012 56.9234 28.6883C56.9426 28.5752 57.0294 28.4853 57.1421 28.462C57.9497 28.2944 58.7851 28.2095 59.6251 28.2095C63.6308 28.2095 67.8402 30.1429 71.1739 33.5147C74.5155 36.8941 77.1067 41.5835 79.095 47.8506C80.2819 51.591 81.1405 55.5092 81.971 59.2986C82.324 60.9106 82.6893 62.5774 83.0747 64.2067C83.4529 65.8059 84.0302 67.7978 85.1462 69.015C85.7522 69.6759 85.9206 70.6045 85.5858 71.4388C85.2618 72.2459 84.5245 72.7853 83.6619 72.8463L83.6227 72.8489C83.5445 72.8534 83.4687 72.8555 83.3927 72.8555Z" fill="#292625"/>
<path d="M9.2842 87.8774C9.12969 87.8774 9.00439 87.7525 9.00439 87.5987V72.0021C9.00439 71.8483 9.12969 71.7236 9.2842 71.7236C9.43871 71.7236 9.564 71.8483 9.564 72.0021V87.5987C9.564 87.7525 9.43871 87.8774 9.2842 87.8774Z" fill="#292625"/>
<path d="M80.0464 82.9053C79.8919 82.9053 79.7666 82.7806 79.7666 82.6268V71.3583C79.7666 71.2046 79.8919 71.0799 80.0464 71.0799C80.2009 71.0799 80.3262 71.2046 80.3262 71.3583V82.6268C80.3262 82.7806 80.2009 82.9053 80.0464 82.9053Z" fill="#292625"/>
<path d="M15.5618 86.0492C15.5618 89.4996 12.7514 92.2964 9.28425 92.2964C5.81733 92.2964 3.00684 89.4996 3.00684 86.0492C3.00684 82.5991 5.81733 79.802 9.28425 79.802C12.7514 79.802 15.5618 82.5991 15.5618 86.0492Z" fill="#F68A14"/>
<path d="M9.28435 80.0808C5.97723 80.0808 3.28671 82.7582 3.28671 86.0493C3.28671 89.3407 5.97723 92.0178 9.28435 92.0178C12.5915 92.0178 15.2821 89.3407 15.2821 86.0493C15.2821 82.7582 12.5915 80.0808 9.28435 80.0808ZM9.28435 92.5747C5.66866 92.5747 2.72705 89.6477 2.72705 86.0493C2.72705 82.4512 5.66866 79.5239 9.28435 79.5239C12.9002 79.5239 15.8417 82.4512 15.8417 86.0493C15.8417 89.6477 12.9002 92.5747 9.28435 92.5747Z" fill="#292625"/>
<path d="M86.3501 86.8153C86.3501 89.6409 84.0483 91.9316 81.2086 91.9316C78.3693 91.9316 76.0674 89.6409 76.0674 86.8153C76.0674 83.9894 78.3693 81.6986 81.2086 81.6986C84.0483 81.6986 86.3501 83.9894 86.3501 86.8153Z" fill="#F68A14"/>
<path d="M81.2086 81.9767C78.528 81.9767 76.3472 84.1472 76.3472 86.8146C76.3472 89.4826 78.528 91.6531 81.2086 91.6531C83.8893 91.6531 86.0701 89.4826 86.0701 86.8146C86.0701 84.1472 83.8893 81.9767 81.2086 81.9767ZM81.2086 92.21C78.2195 92.21 75.7876 89.7896 75.7876 86.8146C75.7876 83.8399 78.2195 81.4198 81.2086 81.4198C84.1981 81.4198 86.63 83.8399 86.63 86.8146C86.63 89.7896 84.1981 92.21 81.2086 92.21Z" fill="#292625"/>
<path d="M77.0026 86.5459C76.9405 87.2524 77.1448 87.979 77.5662 88.5508C77.9876 89.1227 78.6225 89.535 79.3182 89.6885C78.1569 88.647 77.4767 87.0936 77.5009 85.5379C77.1719 85.7464 77.0366 86.1592 77.0026 86.5459Z" fill="#F3ED99"/>
<path d="M79.6993 83.9291C79.4395 84.0936 79.177 84.2605 78.9641 84.4818C78.4761 84.9895 78.3081 85.714 78.1597 86.4009C78.041 85.9142 77.9883 85.4013 78.0984 84.9122C78.2084 84.4232 78.4974 83.9595 78.9372 83.7156C79.1273 83.6103 79.3386 83.5485 79.5505 83.5001C79.9767 83.4029 80.4147 83.3565 80.8519 83.362C80.6571 83.3303 80.4708 83.4401 80.3044 83.5456C80.1025 83.6735 79.9009 83.8013 79.6993 83.9291Z" fill="#F3ED99"/>
<path d="M83.7432 84.2101C84.0198 84.6808 84.0606 85.2477 84.0948 85.792C83.9243 85.1128 83.4492 84.5155 82.824 84.1944C82.1991 83.8732 81.4345 83.8334 80.7793 84.0883C81.1167 83.6094 81.7074 83.3189 82.2947 83.343C82.8819 83.3671 83.4468 83.705 83.7432 84.2101Z" fill="#F3ED99"/>
<path d="M78.587 87.8193C78.632 88.0221 78.7015 88.2232 78.8247 88.3909C79.1377 88.8168 79.727 88.9475 80.094 89.3281C79.6765 88.8493 79.4054 88.2342 79.3888 87.6006C79.3706 86.8944 79.6681 86.2015 80.1279 85.6635C80.5875 85.1254 81.1998 84.7322 81.8489 84.447C80.9373 84.2822 79.9521 84.5989 79.3098 85.2632C78.6673 85.9272 78.387 86.9192 78.587 87.8193Z" fill="#F3ED99"/>
<path d="M83.1605 85.469C82.9507 85.3034 82.7304 85.1332 82.4685 85.0784C82.8281 85.5167 83.0431 86.0843 82.9992 86.6483C82.9552 87.2125 82.6322 87.7618 82.1284 88.0238C82.5964 88.0306 83.0629 87.8116 83.3548 87.4475C83.6469 87.0834 83.7583 86.5823 83.648 86.1296C83.6238 86.0301 83.589 85.9326 83.5359 85.8451C83.4435 85.693 83.3005 85.5793 83.1605 85.469Z" fill="#D56B1C"/>
<path d="M85.0412 87.2739C85.0831 86.8297 84.9046 86.382 84.6154 86.0412C84.7143 86.6809 84.5819 87.3533 84.2482 87.9086C83.9141 88.464 83.3811 88.8977 82.7681 89.1133C83.3572 89.166 84.0315 89.1414 84.4264 88.7026C84.5622 88.552 84.6501 88.3655 84.7362 88.1818C84.8725 87.8913 85.011 87.5932 85.0412 87.2739Z" fill="#D56B1C"/>
<path d="M83.3267 88.1574C82.8024 88.3483 82.2478 88.5424 81.6979 88.446C81.1435 88.3489 80.679 87.9662 80.3276 87.5287C80.2957 87.8831 80.3086 88.2415 80.366 88.5925C80.3844 88.7054 80.4081 88.8193 80.4615 88.9204C80.5905 89.1633 80.8716 89.2906 81.1449 89.3288C81.575 89.3891 82.018 89.2683 82.3904 89.0462C82.7626 88.8238 83.069 88.505 83.3267 88.1574Z" fill="#D56B1C"/>
<path d="M79.8027 90.0224C80.0125 90.3933 80.3968 90.6519 80.8129 90.7504C81.2294 90.8491 81.6732 90.7967 82.0735 90.6461C82.5713 90.4591 83.0419 90.0669 83.1098 89.5417C81.8877 89.9362 80.5066 89.8155 79.3721 89.2153C79.5879 89.4335 79.6516 89.7555 79.8027 90.0224Z" fill="#D56B1C"/>
<path d="M3.82628 86.0214C3.74247 86.9751 4.01815 87.9561 4.58715 88.7284C5.15608 89.5003 6.01329 90.057 6.95257 90.2642C5.38464 88.858 4.46644 86.7609 4.49895 84.6606C4.05476 84.9419 3.87214 85.4993 3.82628 86.0214Z" fill="#F3ED99"/>
<path d="M7.46702 82.4877C7.11615 82.7101 6.76185 82.9354 6.47449 83.2343C5.81559 83.9198 5.58888 84.8979 5.38839 85.8252C5.22798 85.168 5.15693 84.4754 5.3055 83.8153C5.45408 83.1552 5.84429 82.5288 6.43819 82.1996C6.69483 82.0576 6.98006 81.974 7.26618 81.9088C7.84159 81.7776 8.43278 81.7147 9.02292 81.7223C8.76023 81.6793 8.50833 81.8279 8.2838 81.9701C8.01163 82.1427 7.73919 82.3153 7.46702 82.4877Z" fill="#F3ED99"/>
<path d="M12.9266 82.8678C13.2998 83.5032 13.3551 84.2687 13.4014 85.0034C13.1708 84.0863 12.5294 83.2801 11.6855 82.8463C10.8416 82.4127 9.80949 82.3593 8.9248 82.7035C9.38044 82.0568 10.178 81.6644 10.9708 81.6971C11.7636 81.7296 12.5262 82.1859 12.9266 82.8678Z" fill="#F3ED99"/>
<path d="M5.96481 87.7404C6.02569 88.0142 6.11955 88.2858 6.2858 88.5121C6.70841 89.0871 7.50421 89.2634 7.99959 89.7773C7.43577 89.1309 7.06989 88.3007 7.04752 87.445C7.02277 86.4917 7.42471 85.5563 8.04513 84.8297C8.6658 84.1033 9.49232 83.5726 10.3688 83.1875C9.13829 82.9651 7.80796 83.3926 6.94068 84.2893C6.07328 85.1859 5.69458 86.525 5.96481 87.7404Z" fill="#F3ED99"/>
<path d="M12.1399 84.5675C11.8564 84.3441 11.5592 84.1141 11.2054 84.0402C11.6908 84.632 11.9814 85.3982 11.9219 86.1597C11.8624 86.9212 11.4263 87.663 10.7461 88.0169C11.3781 88.0261 12.0077 87.7303 12.402 87.2386C12.7963 86.747 12.9469 86.0706 12.7976 85.4592C12.765 85.3251 12.7184 85.1933 12.6466 85.0752C12.5218 84.8698 12.3288 84.7163 12.1399 84.5675Z" fill="#D56B1C"/>
<path d="M14.679 87.004C14.7354 86.4041 14.4948 85.7995 14.1039 85.3396C14.2376 86.2029 14.0591 87.1111 13.6082 87.8608C13.1573 88.6105 12.4377 89.1962 11.6099 89.4872C12.4056 89.5582 13.3158 89.525 13.8488 88.933C14.0323 88.7292 14.151 88.4774 14.2673 88.2296C14.4516 87.8372 14.6382 87.4351 14.679 87.004Z" fill="#D56B1C"/>
<path d="M12.3639 88.1969C11.6558 88.4547 10.907 88.7166 10.1647 88.5864C9.41607 88.4552 8.78882 87.9386 8.31423 87.3479C8.27159 87.8265 8.28896 88.3101 8.36635 88.7844C8.39135 88.9366 8.4232 89.0904 8.49532 89.2269C8.66931 89.5548 9.04914 89.7269 9.41818 89.7785C9.99858 89.8597 10.5969 89.6968 11.0996 89.3966C11.6021 89.0964 12.0159 88.6663 12.3639 88.1969Z" fill="#D56B1C"/>
<path d="M7.60583 90.7146C7.88932 91.2158 8.40813 91.5644 8.97011 91.6977C9.53209 91.8308 10.1314 91.7601 10.6718 91.5568C11.3438 91.3043 11.9795 90.7749 12.0709 90.0658C10.421 90.5983 8.55633 90.4354 7.0249 89.6249C7.31603 89.9199 7.4021 90.3545 7.60583 90.7146Z" fill="#D56B1C"/>
<path d="M23.2403 45.2646C24.6836 40.1488 26.8683 35.2409 29.7056 30.7399C29.8775 30.4672 30.0572 30.1803 30.0775 29.8589C30.0978 29.5375 29.8951 29.1771 29.5732 29.1428C26.4474 32.5858 24.185 36.7995 23.0461 41.299C22.7115 42.6205 22.4991 44.1186 23.2403 45.2646Z" fill="#F68A14"/>
<path d="M6.72184 70.9633C6.94989 71.1734 7.31285 71.0974 7.60687 70.9974C8.85849 70.5717 10.0372 69.9454 11.119 69.1884C14.1016 67.1009 16.3029 64.056 17.8944 60.7913C19.4861 57.5267 20.5113 54.0231 21.5295 50.5389C21.9919 48.9562 22.4439 47.203 21.7363 45.7125C20.6887 50.4263 19.6232 55.1919 17.4861 59.5256C15.3487 63.8593 12.0008 67.7864 7.53027 69.6606C7.24652 69.7796 6.94721 69.8985 6.74816 70.1322C6.54898 70.3658 6.49594 70.7553 6.72184 70.9633Z" fill="#F68A14"/>
<path d="M68.4784 47.3061C68.9901 48.4165 69.5492 49.5832 70.5697 50.2622C70.0312 43.9875 66.8086 38.2943 63.5799 32.878C62.7397 31.4687 61.7774 29.9636 60.228 29.4085C62.9782 35.3744 65.7283 41.3402 68.4784 47.3061Z" fill="#F68A14"/>
<path d="M69.1318 51.3018C70.3598 55.2318 72.0186 59.0573 74.3828 62.4338C76.7471 65.8104 79.8439 68.7308 83.5461 70.5645C83.7893 70.0974 83.6232 69.5049 83.2921 69.0949C82.9612 68.6847 82.4932 68.412 82.0489 68.127C77.2193 65.0295 74.3428 59.7397 71.7446 54.6398C71.0939 53.3628 70.3816 52.0117 69.1318 51.3018Z" fill="#F68A14"/>
<path d="M29.6136 11.0939C28.526 11.3284 27.416 11.5901 26.4865 12.1988C25.5571 12.8079 24.8309 13.8415 24.8956 14.9469C35.5003 10.7615 47.35 10.4852 58.5962 12.3924C62.052 12.9784 65.6102 13.8276 68.3296 16.0293C67.8392 14.5404 66.6873 13.3325 65.3499 12.5061C64.0122 11.6796 62.4908 11.1982 60.9681 10.7995C50.7653 8.12762 39.9243 8.86972 29.6136 11.0939Z" fill="#F3ED99"/>
<path d="M18.0111 30.0019C18.0038 30.1719 18.0214 30.3836 18.1791 30.4496C18.3454 30.5193 18.516 30.3642 18.6205 30.218C19.1791 29.438 19.4283 28.4446 19.3046 27.4948C19.2657 27.1962 19.1843 26.8887 18.9793 26.6671C18.7742 26.4457 18.4173 26.3412 18.1593 26.4984C18.1098 27.6661 18.0604 28.8339 18.0111 30.0019Z" fill="#F3ED99"/>
<path d="M20.9312 26.8884C20.9456 27.17 20.9806 27.4597 21.1191 27.7059C21.2576 27.9522 21.5213 28.1468 21.8043 28.1287C22.2509 28.1002 22.5 27.6053 22.6052 27.1723C22.7074 26.7514 22.7613 26.3189 22.765 25.8859C22.7682 25.543 22.7355 25.186 22.5597 24.8913C22.3836 24.5966 22.0301 24.3839 21.6953 24.4648C21.2531 24.5717 21.0665 25.0899 20.9985 25.5378C20.9306 25.9841 20.908 26.4373 20.9312 26.8884Z" fill="#F3ED99"/>
<path d="M26.2904 26.1432C26.4884 26.04 26.5926 25.821 26.6721 25.6133C27.0046 24.746 27.1462 23.8069 27.0843 22.8806C27.0601 22.5165 26.9519 22.0864 26.6053 21.9675C26.2394 21.8418 25.8759 22.1514 25.6358 22.4534C25.2162 22.981 24.8693 23.5926 24.7969 24.2616C24.7245 24.9304 24.973 25.6617 25.5355 26.0348C25.7579 26.182 26.0541 26.2666 26.2904 26.1432Z" fill="#F3ED99"/>
<path d="M30.4039 21.7898C30.3279 22.2645 30.2863 22.7444 30.2799 23.2248C30.2739 23.6871 30.3063 24.1709 30.5421 24.5693C30.7782 24.9678 31.2731 25.2486 31.7145 25.1032C32.2033 24.9424 32.4113 24.3677 32.4639 23.8579C32.5329 23.1918 32.4492 22.5107 32.2207 21.8807C32.1088 21.5727 31.954 21.2656 31.6927 21.0668C31.4313 20.868 31.0412 20.807 30.774 20.9982C30.53 21.1729 30.4513 21.4946 30.4039 21.7898Z" fill="#F3ED99"/>
<path d="M36.664 20.4174C36.2395 21.1994 36.1368 22.1487 36.3848 23.0026C36.5432 23.5483 36.9352 24.1146 37.505 24.1416C38.1223 24.1709 38.575 23.5564 38.7561 22.9683C38.9528 22.3302 38.9751 21.6397 38.8204 20.9901C38.7364 20.6383 38.5948 20.288 38.336 20.034C38.0775 19.7801 37.6838 19.6402 37.3389 19.755C37.032 19.8571 36.818 20.1338 36.664 20.4174Z" fill="#F3ED99"/>
<path d="M45.2835 22.121C45.5156 21.3344 45.5804 20.3835 45.0094 19.792C44.7062 19.478 44.2706 19.3234 43.8394 19.2485C43.4375 19.1788 42.9782 19.1856 42.6791 19.4617C42.3983 19.7208 42.3427 20.1394 42.3433 20.5205C42.3443 21.217 42.4757 21.9133 42.7284 22.5629C42.8955 22.9931 43.1606 23.4413 43.6044 23.5728C44.0008 23.6901 44.4409 23.5091 44.7259 23.2107C45.011 22.9126 45.1668 22.516 45.2835 22.121Z" fill="#F3ED99"/>
<path d="M71.2791 30.4803C71.2226 29.8179 71.1997 29.1525 71.2107 28.488C71.2157 28.1899 71.231 27.8787 71.3789 27.6193C71.5266 27.3603 71.8488 27.1745 72.1296 27.2777C72.3018 27.3409 72.4221 27.4941 72.5258 27.6447C72.9374 28.2433 73.2362 28.9183 73.4018 29.6248C73.5318 30.1796 73.5721 30.7928 73.2952 31.2911C73.018 31.7896 72.3312 32.09 71.8445 31.7901C71.4226 31.5302 71.3213 30.9723 71.2791 30.4803Z" fill="#F3ED99"/>
<path d="M69.0759 25.5264C68.9875 25.133 68.8495 24.7264 68.5429 24.4626C68.2362 24.1991 67.7171 24.1451 67.4463 24.4451C67.3102 24.5959 67.2594 24.8037 67.2233 25.0033C67.0951 25.7103 67.0886 26.4388 67.2041 27.1479C67.2652 27.5232 67.3676 27.9078 67.615 28.1977C67.8622 28.4877 68.2881 28.6559 68.6397 28.5063C69.0751 28.3214 69.2059 27.7744 69.2291 27.3037C69.2583 26.708 69.2065 26.1084 69.0759 25.5264Z" fill="#F3ED99"/>
<path d="M65.2956 23.8229C65.2072 23.4292 65.0692 23.0227 64.7626 22.7591C64.4562 22.4953 63.9369 22.4414 63.6663 22.7416C63.5299 22.8925 63.4791 23.0999 63.4431 23.2998C63.3149 24.0068 63.3083 24.7353 63.4238 25.4444C63.4849 25.8197 63.5873 26.2043 63.8347 26.4943C64.0819 26.7842 64.5081 26.9521 64.8595 26.8028C65.2948 26.6179 65.4257 26.0709 65.4488 25.6002C65.478 25.0046 65.4262 24.405 65.2956 23.8229Z" fill="#F3ED99"/>
<path d="M60.4265 22.222C60.338 21.8286 60.2001 21.4221 59.8935 21.1585C59.5871 20.8948 59.0677 20.8408 58.7971 21.1407C58.6608 21.2919 58.61 21.4993 58.5739 21.6992C58.4457 22.4059 58.4392 23.1347 58.5547 23.8438C58.6158 24.2191 58.7182 24.6037 58.9656 24.8937C59.2128 25.1836 59.6389 25.3515 59.9903 25.2022C60.4257 25.017 60.5565 24.4701 60.5797 23.9996C60.6089 23.404 60.557 22.8044 60.4265 22.222Z" fill="#F3ED99"/>
<path d="M54.0774 21.4862C53.9889 21.0928 53.851 20.6863 53.5443 20.4225C53.2377 20.159 52.7186 20.105 52.4478 20.4049C52.3117 20.5561 52.2609 20.7635 52.2248 20.9634C52.0966 21.6701 52.09 22.3989 52.2056 23.1077C52.2667 23.4833 52.3691 23.8676 52.6165 24.1576C52.8636 24.4476 53.2895 24.6157 53.6412 24.4664C54.0766 24.2812 54.2074 23.7343 54.2303 23.2638C54.2598 22.6682 54.2079 22.0683 54.0774 21.4862Z" fill="#F3ED99"/>
<path d="M14.8107 46.3393C13.8628 47.0578 12.9458 47.8801 12.437 48.9522C11.7123 50.4794 11.9137 52.29 11.3564 53.8853C13.6325 51.1159 16.6901 48.9897 20.0859 47.8151C20.3047 46.107 20.7535 44.4281 21.416 42.8376C19.0441 43.6412 16.8041 44.8289 14.8107 46.3393Z" fill="#F68A14"/>
<path d="M72.6831 51.8425C73.3159 52.3971 74.1698 52.6108 74.9808 52.8408C76.7462 53.3411 78.4666 53.9997 80.1144 54.8052C78.7017 53.151 79.2313 50.3196 77.569 48.914C77.1487 48.5587 76.6306 48.3411 76.1187 48.1375C74.2435 47.392 72.3235 46.7592 70.4604 45.9843C71.6907 47.7161 71.0835 50.4408 72.6831 51.8425Z" fill="#F68A14"/>
<path d="M80.6191 45.0511C80.5912 45.1829 79.5615 45.0611 78.2938 45.069C77.0272 45.1119 76.003 45.2746 75.9698 45.1441C75.9414 45.0493 76.9614 44.691 78.2854 44.6462C79.6102 44.6381 80.6438 44.9553 80.6191 45.0511Z" fill="#292625"/>
<path d="M78.2501 41.4741C78.2346 41.6069 77.4215 41.6071 76.4426 41.7481C75.4692 41.9215 74.6977 42.1766 74.6408 42.0553C74.5937 41.9671 75.3333 41.5162 76.3749 41.3305C77.422 41.1799 78.2667 41.3756 78.2501 41.4741Z" fill="#292625"/>
<path d="M84.4762 59.1173C84.4522 59.1742 84.1463 59.1034 83.6667 58.9785C83.1843 58.8598 82.5207 58.7074 81.7776 58.5939C81.0327 58.4926 80.3528 58.4512 79.8563 58.4284C79.361 58.4127 79.0475 58.3938 79.0406 58.3325C79.0343 58.2778 79.3391 58.1908 79.8463 58.1295C80.3536 58.075 81.064 58.0695 81.8387 58.1753C82.6115 58.293 83.2911 58.4994 83.7618 58.6948C84.2306 58.897 84.498 59.0668 84.4762 59.1173Z" fill="#292625"/>
<path d="M84.9308 62.4857C84.8758 62.6091 83.8737 62.2673 82.6057 62.0045C81.331 61.7766 80.2731 61.7206 80.2686 61.5859C80.2607 61.4874 81.356 61.3515 82.6865 61.5893C84.01 61.8639 84.9747 62.3975 84.9308 62.4857Z" fill="#292625"/>
<path d="M11.0333 40.3564C11.0186 40.2524 12.4068 39.9831 14.1459 39.9499C15.8855 39.9404 17.2798 40.1759 17.2677 40.2805C17.2548 40.4083 15.8626 40.3635 14.1512 40.3729C12.44 40.4054 11.0494 40.484 11.0333 40.3564Z" fill="#292625"/>
<path d="M11.4008 43.3172C11.3682 43.2729 11.5206 43.0982 11.8204 42.8771C12.1231 42.6623 12.5851 42.4211 13.1331 42.2592C13.6843 42.1086 14.2047 42.0706 14.5755 42.0939C14.9475 42.1237 15.1696 42.1918 15.1654 42.2469C15.1615 42.3082 14.9367 42.3467 14.5874 42.3928C14.2373 42.4454 13.7627 42.5264 13.25 42.666C12.7404 42.8171 12.2945 42.9979 11.9691 43.137C11.6483 43.2816 11.4369 43.3672 11.4008 43.3172Z" fill="#292625"/>
<path d="M5.84596 59.5907C5.80213 59.5013 6.93554 58.8913 8.47007 58.5093C10.0131 58.1623 11.3013 58.1992 11.3026 58.2985C11.3092 58.4326 10.066 58.584 8.56851 58.9209C7.0792 59.2913 5.90084 59.7133 5.84596 59.5907Z" fill="#292625"/>
<path d="M5.31015 63.5404C5.26798 63.5079 5.41894 63.2352 5.74662 62.8522C6.0815 62.4779 6.61978 62.02 7.30132 61.6512C7.99148 61.2989 8.67507 61.1144 9.17467 61.0503C9.67716 60.9968 9.98854 61.0264 9.9917 61.0794C9.99697 61.1427 9.699 61.219 9.2352 61.3431C8.7722 61.4783 8.14836 61.6949 7.49979 62.0252C6.86016 62.3721 6.3289 62.7629 5.95554 63.0673C5.59116 63.3785 5.35979 63.5804 5.31015 63.5404Z" fill="#292625"/>
<path d="M77.0218 45.6628C77.1392 45.6628 77.2342 45.6824 77.2342 45.7065C77.2342 45.7306 77.1392 45.75 77.0218 45.75C76.9044 45.75 76.8091 45.7306 76.8091 45.7065C76.8091 45.6824 76.9044 45.6628 77.0218 45.6628Z" fill="#292625"/>
<path d="M26.6546 73.8639C26.558 73.823 26.8336 72.9947 27.4493 72.1201C28.0852 71.2601 28.7857 70.7351 28.8554 70.8132C28.9441 70.9072 28.4019 71.5451 27.7944 72.3668C27.2063 73.2022 26.7725 73.9176 26.6546 73.8639Z" fill="#292625"/>
<path d="M28.4939 78.1435C28.3915 78.1393 28.3644 77.2596 28.6803 76.2307C29.0251 75.2112 29.5613 74.5113 29.6471 74.5673C29.7603 74.6352 29.4113 75.3948 29.0849 76.3598C28.7858 77.3338 28.6255 78.1539 28.4939 78.1435Z" fill="#292625"/>
<path d="M60.4757 78.7157C60.3757 78.777 59.7261 77.905 59.0246 76.7684C58.3228 75.6315 57.8354 74.6607 57.9354 74.5994C58.0354 74.5384 58.685 75.4102 59.3865 76.547C60.0883 77.6836 60.5757 78.6547 60.4757 78.7157Z" fill="#292625"/>
<path d="M63.1642 75.9201C63.0744 75.9953 62.5043 75.4667 61.891 74.7395C61.2777 74.0124 60.8534 73.3622 60.9431 73.287C61.0332 73.2118 61.6033 73.7404 62.2166 74.4676C62.8299 75.1948 63.2542 75.8449 63.1642 75.9201Z" fill="#292625"/>
<path d="M31.2634 66.1376C31.2089 66.1263 31.206 65.8885 31.2781 65.5137C31.3555 65.1412 31.5271 64.6372 31.8082 64.1245C32.0983 63.6169 32.4381 63.2064 32.7156 62.9447C32.9977 62.6864 33.2025 62.5633 33.2409 62.6037C33.2838 62.6477 33.1559 62.8444 32.943 63.1401C32.7337 63.4406 32.4529 63.8526 32.1796 64.3304C31.9154 64.8132 31.7114 65.2679 31.5647 65.603C31.4242 65.9391 31.3234 66.1507 31.2634 66.1376Z" fill="#292625"/>
<path d="M33.9096 67.4487C33.8029 67.4474 33.7345 66.7467 33.9388 65.9124C34.1641 65.0838 34.5637 64.5026 34.6576 64.5526C34.7719 64.6102 34.5618 65.2397 34.3502 66.0177C34.1586 66.8009 34.0375 67.4532 33.9096 67.4487Z" fill="#292625"/>
<path d="M61.7975 66.2699C61.7367 66.2874 61.5806 65.9354 61.334 65.3772C61.0776 64.8216 60.7012 64.0703 60.2063 63.2855C59.6967 62.5099 59.1685 61.8553 58.7686 61.3911C58.3622 60.9348 58.1061 60.6466 58.1474 60.5987C58.1822 60.5578 58.5107 60.7677 58.9837 61.1823C59.4493 61.6035 60.0363 62.2529 60.5641 63.0573C61.0776 63.871 61.4248 64.673 61.6146 65.27C61.7954 65.8712 61.8496 66.2557 61.7975 66.2699Z" fill="#292625"/>
<path d="M63.5028 63.6527C63.447 63.6774 63.3199 63.5215 63.142 63.2684C62.959 63.0172 62.7119 62.6754 62.4147 62.3165C62.1109 61.9632 61.8153 61.6619 61.5982 61.4393C61.3786 61.2211 61.2462 61.0694 61.2802 61.0188C61.311 60.9722 61.5055 61.0374 61.7858 61.2056C62.0627 61.3777 62.4149 61.6658 62.74 62.0446C63.0588 62.4286 63.283 62.8239 63.4054 63.1249C63.5236 63.4288 63.5544 63.6307 63.5028 63.6527Z" fill="#292625"/>
<path d="M58.1528 69.2693C58.0409 69.3041 57.7837 68.8012 57.5787 68.1463C57.3736 67.4912 57.2983 66.9319 57.4102 66.8973C57.5223 66.8625 57.7795 67.3655 57.9845 68.0203C58.1893 68.6755 58.2649 69.2347 58.1528 69.2693Z" fill="#292625"/>
<path d="M56.3059 82.5148C56.1742 82.4944 56.2211 81.5886 56.1524 80.4837C56.0532 79.3814 55.87 78.4929 55.9968 78.4531C56.0924 78.4187 56.4717 79.2923 56.5762 80.4517C56.6483 81.6137 56.4056 82.5342 56.3059 82.5148Z" fill="#292625"/>
<path d="M60.8763 53.1697C60.9021 53.2145 60.5383 53.4739 59.8903 53.7942C59.2372 54.1012 58.2815 54.4258 57.1844 54.5892C56.0839 54.7289 55.0752 54.6752 54.3629 54.5565C53.6519 54.4234 53.2311 54.2723 53.2434 54.2225C53.2576 54.1589 53.6983 54.2052 54.3971 54.2594C55.0997 54.2995 56.0673 54.304 57.1259 54.1704C58.1812 54.0124 59.1114 53.7463 59.7761 53.5176C60.4341 53.2761 60.8453 53.1124 60.8763 53.1697Z" fill="#292625"/>
<path d="M63.524 53.9763C63.5583 54.0192 63.4006 54.2076 63.0892 54.4512C62.7746 54.6883 62.293 54.9596 61.7178 55.1516C61.1387 55.3321 60.5886 55.3932 60.1943 55.385C59.7984 55.3693 59.5597 55.3088 59.562 55.2541C59.5639 55.1922 59.8013 55.1464 60.1717 55.0867C60.5425 55.0199 61.0456 54.9172 61.5867 54.7493C62.124 54.5693 62.5917 54.3587 62.9315 54.1966C63.2666 54.0287 63.4861 53.9273 63.524 53.9763Z" fill="#292625"/>
<path d="M34.5587 53.9718C34.5724 54.0219 34.2239 54.1631 33.6277 54.2833C33.0305 54.3899 32.1797 54.43 31.2574 54.2836C30.339 54.1146 29.5507 53.7934 29.0237 53.494C28.5023 53.1823 28.2214 52.9329 28.2512 52.8905C28.2867 52.8363 28.6223 52.9935 29.1564 53.2258C29.6981 53.4466 30.4585 53.7054 31.3295 53.8665C32.2048 54.0048 33.0084 54.014 33.593 53.9862C34.1744 53.9451 34.5435 53.9087 34.5587 53.9718Z" fill="#292625"/>
<path d="M32.7128 56.0533C32.7128 56.1701 32.0648 56.2646 31.2651 56.2646C30.4657 56.2646 29.8174 56.1701 29.8174 56.0533C29.8174 55.9364 30.4657 55.8416 31.2651 55.8416C32.0648 55.8416 32.7128 55.9364 32.7128 56.0533Z" fill="#292625"/>
<path d="M63.772 6.0193C63.7994 6.0751 63.6222 6.21969 63.3437 6.43423C63.0684 6.6561 62.7025 6.96808 62.3403 7.35577C61.9879 7.75209 61.7112 8.1445 61.5159 8.43893C61.3282 8.73545 61.2008 8.92483 61.1424 8.90309C61.0908 8.88476 61.1195 8.65397 61.2485 8.30296C61.3838 7.95588 61.6433 7.50036 62.0255 7.07155C62.4174 6.65112 62.8481 6.35014 63.1818 6.18223C63.5206 6.02061 63.7486 5.9698 63.772 6.0193Z" fill="#292625"/>
<path d="M66.9283 8.92245C66.9178 8.98636 66.6683 8.99919 66.2919 9.03586C65.9128 9.08642 65.4051 9.20194 64.8831 9.44005C64.3711 9.69886 63.9647 10.0231 63.6894 10.2872C63.4264 10.5578 63.2611 10.7443 63.2045 10.7129C63.1582 10.6895 63.2324 10.4433 63.4593 10.0947C63.6965 9.75571 64.124 9.34733 64.6983 9.05945C65.2819 8.79069 65.8689 8.71105 66.2834 8.73699C66.6985 8.7768 66.9389 8.87189 66.9283 8.92245Z" fill="#292625"/>
<path d="M27.1851 10.9981C27.139 11.1055 26.2764 10.8407 25.2588 10.4066C24.2412 9.97255 23.4539 9.53379 23.5 9.42639C23.5463 9.31899 24.4086 9.58383 25.4262 10.0179C26.4438 10.4519 27.2314 10.8907 27.1851 10.9981Z" fill="#292625"/>
<path d="M28.7634 9.42814C28.711 9.53266 28.197 9.38283 27.6155 9.09338C27.0341 8.80393 26.6053 8.48487 26.6577 8.38035C26.7103 8.27583 27.2241 8.42566 27.8056 8.71511C28.3873 9.00457 28.8161 9.32363 28.7634 9.42814Z" fill="#292625"/>
<path d="M25.3192 17.6237C25.3105 17.6517 25.2092 17.6564 25.036 17.6418C24.9494 17.6344 24.8449 17.6224 24.7248 17.6056C24.6043 17.5917 24.4708 17.5587 24.3171 17.5608C23.7112 17.5132 22.8752 17.5153 21.97 17.6824C21.0705 17.8783 20.2996 18.1995 19.7597 18.4776C19.6173 18.5353 19.507 18.617 19.4015 18.6767C19.2975 18.7386 19.2059 18.7902 19.1288 18.8302C18.975 18.9106 18.8797 18.9455 18.8608 18.923C18.8421 18.9007 18.9016 18.8229 19.0279 18.6998C19.0911 18.6382 19.1711 18.5651 19.2659 18.4824C19.3622 18.4019 19.4657 18.2993 19.6039 18.2217C20.1264 17.8639 20.9302 17.4746 21.8857 17.268C22.8468 17.0891 23.7399 17.137 24.3608 17.2648C24.5182 17.2826 24.6538 17.3374 24.7741 17.3743C24.8938 17.4139 24.9957 17.4503 25.0781 17.4825C25.2426 17.5472 25.3279 17.5959 25.3192 17.6237Z" fill="#292625"/>
<path d="M44.0311 13.0936C44.0119 13.2089 43.2891 13.1848 42.4171 13.0402C41.5447 12.8956 40.8532 12.685 40.8725 12.5697C40.8919 12.4545 41.6145 12.4783 42.4868 12.6229C43.3591 12.7678 44.0506 12.9784 44.0311 13.0936Z" fill="#292625"/>
<path d="M46.125 12.0853C46.0913 12.1971 45.4749 12.1109 44.7484 11.893C44.0216 11.6751 43.4602 11.4076 43.4941 11.2958C43.5278 11.1839 44.1443 11.2701 44.8711 11.488C45.5975 11.706 46.159 11.9734 46.125 12.0853Z" fill="#292625"/>
<path d="M63.547 17.479C63.4906 17.5814 62.6815 17.2495 61.7397 16.7374C60.7979 16.2256 60.0801 15.7273 60.1364 15.6249C60.1925 15.5225 61.0016 15.8544 61.9434 16.3662C62.8852 16.8784 63.6033 17.3766 63.547 17.479Z" fill="#292625"/>
<path d="M66.4051 16.7612C66.368 16.872 65.8076 16.7859 65.1535 16.569C64.4994 16.3518 63.999 16.0862 64.0361 15.9754C64.0732 15.8646 64.6336 15.9505 65.288 16.1677C65.9421 16.3845 66.4422 16.6504 66.4051 16.7612Z" fill="#292625"/>
<path d="M52.6515 4.34471C52.7139 4.44372 52.0021 4.99906 51.0619 5.58504C50.1217 6.17128 49.3088 6.56604 49.2465 6.46728C49.1843 6.36827 49.8958 5.81293 50.8363 5.22669C51.7765 4.64071 52.5891 4.24569 52.6515 4.34471Z" fill="#292625"/>
</g>
<defs>
<clipPath id="clip0_852_4618">
<rect width="90" height="97" fill="white"/>
</clipPath>
</defs>
</svg>
